<svg width="20" height="20" viewBox="0 0 20 20" fill="none" xmlns="http://www.w3.org/2000/svg">
<g id="arrow-down">
<g id="vuesax/outline/arrow-down">
<g id="arrow-down_2">
<path id="Vector" d="M10 17.7081C9.84167 17.7081 9.68334 17.6498 9.55834 17.5248L4.50001 12.4664C4.25834 12.2248 4.25834 11.8248 4.50001 11.5831C4.74167 11.3414 5.14167 11.3414 5.38334 11.5831L10 16.1998L14.6167 11.5831C14.8583 11.3414 15.2583 11.3414 15.5 11.5831C15.7417 11.8248 15.7417 12.2248 15.5 12.4664L10.4417 17.5248C10.3167 17.6498 10.1583 17.7081 10 17.7081Z" fill="#475569"/>
<path id="Vector_2" d="M10 17.5665C9.65833 17.5665 9.375 17.2832 9.375 16.9415V2.9165C9.375 2.57484 9.65833 2.2915 10 2.2915C10.3417 2.2915 10.625 2.57484 10.625 2.9165V16.9415C10.625 17.2832 10.3417 17.5665 10 17.5665Z" fill="#475569"/>
</g>
</g>
</g>
</svg>
