<svg width="20" height="20" viewBox="0 0 20 20" fill="none" xmlns="http://www.w3.org/2000/svg">
<path d="M9.99961 17.7081C9.84128 17.7081 9.68294 17.6498 9.55794 17.5248L4.49961 12.4664C4.25794 12.2248 4.25794 11.8248 4.49961 11.5831C4.74128 11.3414 5.14128 11.3414 5.38294 11.5831L9.99961 16.1998L14.6163 11.5831C14.8579 11.3414 15.2579 11.3414 15.4996 11.5831C15.7413 11.8248 15.7413 12.2248 15.4996 12.4664L10.4413 17.5248C10.3163 17.6498 10.1579 17.7081 9.99961 17.7081Z" fill="#F1555D"/>
<path d="M10 17.5665C9.65833 17.5665 9.375 17.2832 9.375 16.9415V2.9165C9.375 2.57484 9.65833 2.2915 10 2.2915C10.3417 2.2915 10.625 2.57484 10.625 2.9165V16.9415C10.625 17.2832 10.3417 17.5665 10 17.5665Z" fill="#F1555D"/>
</svg>
