<svg width="20" height="20" viewBox="0 0 20 20" fill="none" xmlns="http://www.w3.org/2000/svg">
<path d="M7.97617 15.6829C7.81784 15.6829 7.6595 15.6246 7.5345 15.4996L2.47617 10.4413C2.23451 10.1996 2.23451 9.79961 2.47617 9.55794L7.5345 4.49961C7.77617 4.25794 8.17617 4.25794 8.41784 4.49961C8.65951 4.74128 8.65951 5.14128 8.41784 5.38294L3.80117 9.99961L8.41784 14.6163C8.65951 14.8579 8.65951 15.2579 8.41784 15.4996C8.30117 15.6246 8.1345 15.6829 7.97617 15.6829Z" fill="#475569"/>
<path d="M17.0836 10.625H3.05859C2.71693 10.625 2.43359 10.3417 2.43359 10C2.43359 9.65833 2.71693 9.375 3.05859 9.375H17.0836C17.4253 9.375 17.7086 9.65833 17.7086 10C17.7086 10.3417 17.4253 10.625 17.0836 10.625Z" fill="#475569"/>
</svg>
