<svg width="20" height="20" viewBox="0 0 20 20" fill="none" xmlns="http://www.w3.org/2000/svg">
<path d="M15.0579 8.60019C14.8996 8.60019 14.7413 8.54186 14.6163 8.41686L9.99961 3.8002L5.38294 8.41686C5.14128 8.65853 4.74128 8.65853 4.49961 8.41686C4.25794 8.1752 4.25794 7.7752 4.49961 7.53353L9.55794 2.4752C9.79961 2.23353 10.1996 2.23353 10.4413 2.4752L15.4996 7.53353C15.7413 7.7752 15.7413 8.1752 15.4996 8.41686C15.3829 8.54186 15.2163 8.60019 15.0579 8.60019Z" fill="#475569"/>
<path d="M10 17.7081C9.65833 17.7081 9.375 17.4248 9.375 17.0831V3.05811C9.375 2.71644 9.65833 2.43311 10 2.43311C10.3417 2.43311 10.625 2.71644 10.625 3.05811V17.0831C10.625 17.4248 10.3417 17.7081 10 17.7081Z" fill="#475569"/>
</svg>
