<svg width="40" height="40" viewBox="0 0 40 40" fill="none" xmlns="http://www.w3.org/2000/svg">
<rect width="40" height="40" rx="16" fill="#BFDBFE"/>
<path opacity="0.4" d="M25.53 15.77C25.46 15.76 25.39 15.76 25.32 15.77C23.77 15.72 22.54 14.45 22.54 12.89C22.54 11.3 23.83 10 25.43 10C27.02 10 28.32 11.29 28.32 12.89C28.31 14.45 27.08 15.72 25.53 15.77Z" fill="#3B82F6"/>
<path opacity="0.4" d="M28.7896 22.7004C27.6696 23.4504 26.0996 23.7304 24.6496 23.5404C25.0296 22.7204 25.2296 21.8104 25.2396 20.8504C25.2396 19.8504 25.0196 18.9004 24.5996 18.0704C26.0796 17.8704 27.6496 18.1504 28.7796 18.9004C30.3596 19.9404 30.3596 21.6504 28.7896 22.7004Z" fill="#3B82F6"/>
<path opacity="0.4" d="M14.4404 15.77C14.5104 15.76 14.5804 15.76 14.6504 15.77C16.2004 15.72 17.4304 14.45 17.4304 12.89C17.4304 11.3 16.1404 10 14.5404 10C12.9504 10 11.6504 11.29 11.6504 12.89C11.6604 14.45 12.8904 15.72 14.4404 15.77Z" fill="#3B82F6"/>
<path opacity="0.4" d="M14.5501 20.8496C14.5501 21.8196 14.7601 22.7396 15.1401 23.5696C13.7301 23.7196 12.2601 23.4196 11.1801 22.7096C9.60012 21.6596 9.60012 19.9496 11.1801 18.8996C12.2501 18.1796 13.7601 17.8896 15.1801 18.0496C14.7701 18.8896 14.5501 19.8396 14.5501 20.8496Z" fill="#3B82F6"/>
<path d="M20.1198 23.87C20.0398 23.86 19.9498 23.86 19.8598 23.87C18.0198 23.81 16.5498 22.3 16.5498 20.44C16.5498 18.54 18.0798 17 19.9898 17C21.8898 17 23.4298 18.54 23.4298 20.44C23.4298 22.3 21.9698 23.81 20.1198 23.87Z" fill="#3B82F6"/>
<path d="M16.8698 25.9396C15.3598 26.9496 15.3598 28.6096 16.8698 29.6096C18.5898 30.7596 21.4098 30.7596 23.1298 29.6096C24.6398 28.5996 24.6398 26.9396 23.1298 25.9396C21.4198 24.7896 18.5998 24.7896 16.8698 25.9396Z" fill="#3B82F6"/>
</svg>
