<svg width="32" height="32" viewBox="0 0 32 32" fill="none" xmlns="http://www.w3.org/2000/svg">
<rect width="32" height="32" rx="16" fill="#FBD4D6"/>
<path opacity="0.4" d="M22.6663 13.1799V13.9999H9.33301V13.0266C9.33301 11.4999 10.573 10.2666 12.0997 10.2666H18.6663V11.9799C18.6663 12.8266 19.173 13.3333 20.0197 13.3333H21.9797C22.2463 13.3333 22.473 13.2866 22.6663 13.1799Z" fill="#ED2B35"/>
<path d="M9.33301 14V18.9733C9.33301 20.5 10.573 21.7333 12.0997 21.7333H19.8997C21.4263 21.7333 22.6663 20.5 22.6663 18.9733V14H9.33301ZM13.333 19.5H11.9997C11.7263 19.5 11.4997 19.2733 11.4997 19C11.4997 18.7267 11.7263 18.5 11.9997 18.5H13.333C13.6063 18.5 13.833 18.7267 13.833 19C13.833 19.2733 13.6063 19.5 13.333 19.5ZM17.6663 19.5H14.9997C14.7263 19.5 14.4997 19.2733 14.4997 19C14.4997 18.7267 14.7263 18.5 14.9997 18.5H17.6663C17.9397 18.5 18.1663 18.7267 18.1663 19C18.1663 19.2733 17.9397 19.5 17.6663 19.5Z" fill="#ED2B35"/>
<path d="M21.9803 8.6665H20.0203C19.1737 8.6665 18.667 9.17317 18.667 10.0198V11.9798C18.667 12.8265 19.1737 13.3332 20.0203 13.3332H21.9803C22.827 13.3332 23.3337 12.8265 23.3337 11.9798V10.0198C23.3337 9.17317 22.827 8.6665 21.9803 8.6665ZM22.607 11.2865C22.5403 11.3532 22.4403 11.3998 22.3337 11.4065H21.3937L21.4003 12.3332C21.3937 12.4465 21.3537 12.5398 21.2737 12.6198C21.207 12.6865 21.107 12.7332 21.0003 12.7332C20.7803 12.7332 20.6003 12.5532 20.6003 12.3332V11.3998L19.667 11.4065C19.447 11.4065 19.267 11.2198 19.267 10.9998C19.267 10.7798 19.447 10.5998 19.667 10.5998L20.6003 10.6065V9.67317C20.6003 9.45317 20.7803 9.2665 21.0003 9.2665C21.2203 9.2665 21.4003 9.45317 21.4003 9.67317L21.3937 10.5998H22.3337C22.5537 10.5998 22.7337 10.7798 22.7337 10.9998C22.727 11.1132 22.6803 11.2065 22.607 11.2865Z" fill="#ED2B35"/>
</svg>
