<svg width="40" height="41" viewBox="0 0 40 41" fill="none" xmlns="http://www.w3.org/2000/svg">
<rect y="0.5" width="40" height="40" rx="16" fill="#D1FAE5"/>
<path opacity="0.4" d="M24.1894 17.3599C23.7994 17.3599 23.4894 17.0499 23.4894 16.6599V15.3799C23.4894 14.3999 23.0694 13.4599 22.3494 12.7999C21.6094 12.1299 20.6594 11.8199 19.6594 11.9099C17.9794 12.0699 16.5094 13.7799 16.5094 15.5599V16.4599C16.5094 16.8499 16.1994 17.1599 15.8094 17.1599C15.4194 17.1599 15.1094 16.8499 15.1094 16.4599V15.5599C15.1094 13.0599 17.1294 10.7499 19.5194 10.5199C20.9094 10.3899 22.2494 10.8299 23.2794 11.7699C24.2994 12.6899 24.8794 14.0099 24.8794 15.3799V16.6599C24.8794 17.0499 24.5694 17.3599 24.1894 17.3599Z" fill="#10B981"/>
<path d="M27.9597 17.4601C27.1197 16.5301 25.7397 16.0801 23.7197 16.0801H16.2797C14.2597 16.0801 12.8797 16.5301 12.0397 17.4601C11.0697 18.5401 11.0997 19.9801 11.2097 20.9801L11.9097 26.5501C12.1197 28.5001 12.9097 30.5001 17.2097 30.5001H22.7897C27.0897 30.5001 27.8797 28.5001 28.0897 26.5601L28.7897 20.9701C28.8997 19.9801 28.9297 18.5401 27.9597 17.4601ZM19.9997 27.0801C17.9097 27.0801 16.2097 25.3801 16.2097 23.2901C16.2097 21.2001 17.9097 19.5001 19.9997 19.5001C22.0897 19.5001 23.7897 21.2001 23.7897 23.2901C23.7897 25.3801 22.0897 27.0801 19.9997 27.0801Z" fill="#10B981"/>
<path opacity="0.4" d="M20.0009 27.08C22.0941 27.08 23.7909 25.3832 23.7909 23.29C23.7909 21.1968 22.0941 19.5 20.0009 19.5C17.9078 19.5 16.2109 21.1968 16.2109 23.29C16.2109 25.3832 17.9078 27.08 20.0009 27.08Z" fill="#10B981"/>
<path d="M19.4309 25.14C19.2409 25.14 19.0509 25.07 18.9009 24.92L17.9109 23.93C17.6209 23.64 17.6209 23.16 17.9109 22.87C18.2009 22.58 18.6809 22.58 18.9709 22.87L19.4509 23.35L21.0509 21.87C21.3509 21.59 21.8309 21.61 22.1109 21.91C22.3909 22.21 22.3709 22.69 22.0709 22.97L19.9409 24.94C19.7909 25.07 19.6109 25.14 19.4309 25.14Z" fill="#10B981"/>
</svg>
