<svg width="18" height="16" viewBox="0 0 18 16" fill="none" xmlns="http://www.w3.org/2000/svg">
<path d="M13.1665 0.916992H4.83317C2.33317 0.916992 0.666504 2.16699 0.666504 5.08366V10.917C0.666504 13.8337 2.33317 15.0837 4.83317 15.0837H13.1665C15.6665 15.0837 17.3332 13.8337 17.3332 10.917V5.08366C17.3332 2.16699 15.6665 0.916992 13.1665 0.916992ZM13.5582 5.99199L10.9498 8.07533C10.3998 8.51699 9.69984 8.73366 8.99984 8.73366C8.29984 8.73366 7.5915 8.51699 7.04984 8.07533L4.4415 5.99199C4.17484 5.77533 4.13317 5.37533 4.3415 5.10866C4.55817 4.84199 4.94984 4.79199 5.2165 5.00866L7.82484 7.09199C8.45817 7.60033 9.53317 7.60033 10.1665 7.09199L12.7748 5.00866C13.0415 4.79199 13.4415 4.83366 13.6498 5.10866C13.8665 5.37533 13.8248 5.77533 13.5582 5.99199Z" fill="#F1555D"/>
</svg>
