<svg width="20" height="20" viewBox="0 0 20 20" fill="none" xmlns="http://www.w3.org/2000/svg">
<path d="M10 14.4579C10.7502 14.4579 11.3583 13.8497 11.3583 13.0995C11.3583 12.3494 10.7502 11.7412 10 11.7412C9.24981 11.7412 8.64166 12.3494 8.64166 13.0995C8.64166 13.8497 9.24981 14.4579 10 14.4579Z" fill="#F1555D"/>
<path d="M15.2333 7.94199V6.90033C15.2333 4.65033 14.6917 1.66699 10 1.66699C5.30834 1.66699 4.76667 4.65033 4.76667 6.90033V7.94199C2.43334 8.23366 1.66667 9.41699 1.66667 12.3253V13.8753C1.66667 17.292 2.70834 18.3337 6.12501 18.3337H13.875C17.2917 18.3337 18.3333 17.292 18.3333 13.8753V12.3253C18.3333 9.41699 17.5667 8.23366 15.2333 7.94199ZM10 15.617C8.60834 15.617 7.48334 14.4837 7.48334 13.1003C7.48334 11.7087 8.61667 10.5837 10 10.5837C11.3833 10.5837 12.5167 11.717 12.5167 13.1003C12.5167 14.492 11.3917 15.617 10 15.617ZM6.12501 7.86699C6.05834 7.86699 6.00001 7.86699 5.93334 7.86699V6.90033C5.93334 4.45866 6.62501 2.83366 10 2.83366C13.375 2.83366 14.0667 4.45866 14.0667 6.90033V7.87533C14 7.87533 13.9417 7.87533 13.875 7.87533H6.12501V7.86699Z" fill="#F1555D"/>
</svg>
