<svg width="20" height="20" viewBox="0 0 20 20" fill="none" xmlns="http://www.w3.org/2000/svg">
<path d="M13.5335 1.66699H6.46683C4.16683 1.66699 3.3335 2.50033 3.3335 4.84199V15.1587C3.3335 17.5003 4.16683 18.3337 6.46683 18.3337H13.5252C15.8335 18.3337 16.6668 17.5003 16.6668 15.1587V4.84199C16.6668 2.50033 15.8335 1.66699 13.5335 1.66699ZM10.0002 16.0837C9.20016 16.0837 8.54183 15.4253 8.54183 14.6253C8.54183 13.8253 9.20016 13.167 10.0002 13.167C10.8002 13.167 11.4585 13.8253 11.4585 14.6253C11.4585 15.4253 10.8002 16.0837 10.0002 16.0837ZM11.6668 5.20866H8.3335C7.99183 5.20866 7.7085 4.92533 7.7085 4.58366C7.7085 4.24199 7.99183 3.95866 8.3335 3.95866H11.6668C12.0085 3.95866 12.2918 4.24199 12.2918 4.58366C12.2918 4.92533 12.0085 5.20866 11.6668 5.20866Z" fill="#F1555D"/>
</svg>
