<svg width="20" height="20" viewBox="0 0 20 20" fill="none" xmlns="http://www.w3.org/2000/svg">
<path d="M4.16667 12.2913C2.9 12.2913 1.875 11.2663 1.875 9.99967C1.875 8.73301 2.9 7.70801 4.16667 7.70801C5.43333 7.70801 6.45833 8.73301 6.45833 9.99967C6.45833 11.2663 5.43333 12.2913 4.16667 12.2913ZM4.16667 8.95801C3.59167 8.95801 3.125 9.42467 3.125 9.99967C3.125 10.5747 3.59167 11.0413 4.16667 11.0413C4.74167 11.0413 5.20833 10.5747 5.20833 9.99967C5.20833 9.42467 4.74167 8.95801 4.16667 8.95801Z" fill="#64748B"/>
<path d="M15.8327 12.2913C14.566 12.2913 13.541 11.2663 13.541 9.99967C13.541 8.73301 14.566 7.70801 15.8327 7.70801C17.0993 7.70801 18.1243 8.73301 18.1243 9.99967C18.1243 11.2663 17.0993 12.2913 15.8327 12.2913ZM15.8327 8.95801C15.2577 8.95801 14.791 9.42467 14.791 9.99967C14.791 10.5747 15.2577 11.0413 15.8327 11.0413C16.4077 11.0413 16.8743 10.5747 16.8743 9.99967C16.8743 9.42467 16.4077 8.95801 15.8327 8.95801Z" fill="#64748B"/>
<path d="M10.0007 12.2913C8.73398 12.2913 7.70898 11.2663 7.70898 9.99967C7.70898 8.73301 8.73398 7.70801 10.0007 7.70801C11.2673 7.70801 12.2923 8.73301 12.2923 9.99967C12.2923 11.2663 11.2673 12.2913 10.0007 12.2913ZM10.0007 8.95801C9.42565 8.95801 8.95898 9.42467 8.95898 9.99967C8.95898 10.5747 9.42565 11.0413 10.0007 11.0413C10.5757 11.0413 11.0423 10.5747 11.0423 9.99967C11.0423 9.42467 10.5757 8.95801 10.0007 8.95801Z" fill="#64748B"/>
</svg>
