<svg width="80" height="80" viewBox="0 0 80 80" fill="none" xmlns="http://www.w3.org/2000/svg">
<rect x="7.05859" y="7.05908" width="65.8824" height="65.8824" rx="32.9412" fill="#FDE9EA"/>
<path opacity="0.4" d="M43.0695 49.3969L43.068 49.399L41.068 52.0524L41.067 52.0537C40.7344 52.4971 40.3415 52.667 40.0003 52.667C39.6592 52.667 39.2662 52.4971 38.9337 52.0537L38.9327 52.0524L36.9356 49.4029C36.7488 49.1484 36.4815 48.9556 36.2251 48.8274C35.9658 48.6977 35.6499 48.6003 35.3337 48.6003H33.3337C30.0192 48.6003 27.3337 45.9229 27.3337 42.627V41.2937V33.3203C27.3337 30.0103 30.0201 27.3337 33.3337 27.3337H46.667C49.9805 27.3337 52.667 30.0103 52.667 33.3203V42.627C52.667 45.9229 49.9814 48.6003 46.667 48.6003H44.667C44.0422 48.6003 43.447 48.9003 43.0695 49.3969Z" fill="#F1555D" stroke="#F1555D" stroke-width="1.33333"/>
<path d="M46.6663 35.0003H33.333C33.1545 35.0003 32.9997 34.8455 32.9997 34.667C32.9997 34.4885 33.1545 34.3337 33.333 34.3337H46.6663C46.8448 34.3337 46.9997 34.4885 46.9997 34.667C46.9997 34.8455 46.8448 35.0003 46.6663 35.0003Z" fill="#F1555D" stroke="#F1555D" stroke-width="1.33333"/>
<path d="M41.333 41.6673H33.333C33.1545 41.6673 32.9997 41.5125 32.9997 41.334C32.9997 41.1555 33.1545 41.0007 33.333 41.0007H41.333C41.5115 41.0007 41.6663 41.1555 41.6663 41.334C41.6663 41.5125 41.5115 41.6673 41.333 41.6673Z" fill="#F1555D" stroke="#F1555D" stroke-width="1.33333"/>
<circle cx="40" cy="40" r="38.5714" stroke="#F8AAAE" stroke-width="2.85714"/>
</svg>
