<svg width="32" height="32" viewBox="0 0 32 32" fill="none" xmlns="http://www.w3.org/2000/svg">
<rect width="32" height="32" rx="16" fill="#D1FAE5"/>
<path opacity="0.4" d="M15.9997 22.6668C19.6816 22.6668 22.6663 19.6821 22.6663 16.0002C22.6663 12.3183 19.6816 9.3335 15.9997 9.3335C12.3178 9.3335 9.33301 12.3183 9.33301 16.0002C9.33301 19.6821 12.3178 22.6668 15.9997 22.6668Z" fill="#047857"/>
<path d="M15.053 18.3867C14.9196 18.3867 14.793 18.3334 14.6996 18.2401L12.813 16.3534C12.6196 16.1601 12.6196 15.8401 12.813 15.6467C13.0063 15.4534 13.3263 15.4534 13.5196 15.6467L15.053 17.1801L18.4796 13.7534C18.673 13.5601 18.993 13.5601 19.1863 13.7534C19.3796 13.9467 19.3796 14.2667 19.1863 14.4601L15.4063 18.2401C15.313 18.3334 15.1863 18.3867 15.053 18.3867Z" fill="#047857"/>
</svg>
