<svg width="40" height="41" viewBox="0 0 40 41" fill="none" xmlns="http://www.w3.org/2000/svg">
<rect y="0.5" width="40" height="40" rx="16" fill="#FEF3C7"/>
<path opacity="0.4" d="M25 29H15C12 29 10 27.5 10 24V17C10 13.5 12 12 15 12H25C28 12 30 13.5 30 17V24C30 27.5 28 29 25 29Z" fill="#F59E0B"/>
<path d="M20 23.5C21.6569 23.5 23 22.1569 23 20.5C23 18.8431 21.6569 17.5 20 17.5C18.3431 17.5 17 18.8431 17 20.5C17 22.1569 18.3431 23.5 20 23.5Z" fill="#F59E0B"/>
<path d="M27 16.25H24C23.59 16.25 23.25 15.91 23.25 15.5C23.25 15.09 23.59 14.75 24 14.75H27C27.41 14.75 27.75 15.09 27.75 15.5C27.75 15.91 27.41 16.25 27 16.25Z" fill="#F59E0B"/>
<path d="M16 26.25H13C12.59 26.25 12.25 25.91 12.25 25.5C12.25 25.09 12.59 24.75 13 24.75H16C16.41 24.75 16.75 25.09 16.75 25.5C16.75 25.91 16.41 26.25 16 26.25Z" fill="#F59E0B"/>
</svg>
