<svg width="20" height="20" viewBox="0 0 20 20" fill="none" xmlns="http://www.w3.org/2000/svg">
<path d="M16.2833 5.45033L13.725 2.89199C12.9417 2.10866 11.8833 1.66699 10.775 1.66699H6.66667C4.16667 1.66699 2.5 3.33366 2.5 5.83366V14.167C2.5 16.667 4.16667 18.3337 6.66667 18.3337H13.3333C15.8333 18.3337 17.5 16.667 17.5 14.167V8.39199C17.5 7.28366 17.0583 6.22533 16.2833 5.45033ZM9.58333 14.917C9.58333 15.1931 9.35948 15.417 9.08333 15.417H8.33333C6.95833 15.417 5.83333 14.292 5.83333 12.917V12.5837C5.83333 12.3075 6.05719 12.0837 6.33333 12.0837H9.375C9.49167 12.0837 9.58333 12.1753 9.58333 12.292V14.917ZM9.58333 11.042C9.58333 11.1587 9.49167 11.2503 9.375 11.2503H6.33333C6.05719 11.2503 5.83333 11.0265 5.83333 10.7503V10.417C5.83333 9.04199 6.95833 7.91699 8.33333 7.91699H9.08333C9.35948 7.91699 9.58333 8.14085 9.58333 8.41699V11.042ZM14.1667 12.917C14.1667 14.292 13.0417 15.417 11.6667 15.417H10.9167C10.6405 15.417 10.4167 15.1931 10.4167 14.917V12.292C10.4167 12.1753 10.5083 12.0837 10.625 12.0837H13.6667C13.9428 12.0837 14.1667 12.3075 14.1667 12.5837V12.917ZM14.1667 10.7503C14.1667 11.0265 13.9428 11.2503 13.6667 11.2503H10.625C10.5083 11.2503 10.4167 11.1587 10.4167 11.042V8.41699C10.4167 8.14085 10.6405 7.91699 10.9167 7.91699H11.6667C13.0417 7.91699 14.1667 9.04199 14.1667 10.417V10.7503Z" fill="#F1555D"/>
</svg>
