<svg width="16" height="16" viewBox="0 0 16 16" fill="none" xmlns="http://www.w3.org/2000/svg">
<mask id="path-1-inside-1_53_15583" fill="white">
<path d="M14 5.1665H2C1.72667 5.1665 1.5 4.93984 1.5 4.6665C1.5 4.39317 1.72667 4.1665 2 4.1665H14C14.2733 4.1665 14.5 4.39317 14.5 4.6665C14.5 4.93984 14.2733 5.1665 14 5.1665Z"/>
</mask>
<path d="M14 5.1665H2C1.72667 5.1665 1.5 4.93984 1.5 4.6665C1.5 4.39317 1.72667 4.1665 2 4.1665H14C14.2733 4.1665 14.5 4.39317 14.5 4.6665C14.5 4.93984 14.2733 5.1665 14 5.1665Z" fill="#F1555D"/>
<path d="M14 4.1665H2V6.1665H14V4.1665ZM2 4.1665C2.27895 4.1665 2.5 4.38755 2.5 4.6665H0.5C0.5 5.49212 1.17438 6.1665 2 6.1665V4.1665ZM2.5 4.6665C2.5 4.94546 2.27895 5.1665 2 5.1665V3.1665C1.17438 3.1665 0.5 3.84089 0.5 4.6665H2.5ZM2 5.1665H14V3.1665H2V5.1665ZM14 5.1665C13.721 5.1665 13.5 4.94546 13.5 4.6665H15.5C15.5 3.84089 14.8256 3.1665 14 3.1665V5.1665ZM13.5 4.6665C13.5 4.38755 13.721 4.1665 14 4.1665V6.1665C14.8256 6.1665 15.5 5.49212 15.5 4.6665H13.5Z" fill="#F1555D" mask="url(#path-1-inside-1_53_15583)"/>
<mask id="path-3-inside-2_53_15583" fill="white">
<path d="M12 8.5H4C3.72667 8.5 3.5 8.27333 3.5 8C3.5 7.72667 3.72667 7.5 4 7.5H12C12.2733 7.5 12.5 7.72667 12.5 8C12.5 8.27333 12.2733 8.5 12 8.5Z"/>
</mask>
<path d="M12 8.5H4C3.72667 8.5 3.5 8.27333 3.5 8C3.5 7.72667 3.72667 7.5 4 7.5H12C12.2733 7.5 12.5 7.72667 12.5 8C12.5 8.27333 12.2733 8.5 12 8.5Z" fill="#F1555D"/>
<path d="M12 7.5H4V9.5H12V7.5ZM4 7.5C4.27895 7.5 4.5 7.72105 4.5 8H2.5C2.5 8.82562 3.17438 9.5 4 9.5V7.5ZM4.5 8C4.5 8.27895 4.27895 8.5 4 8.5V6.5C3.17438 6.5 2.5 7.17438 2.5 8H4.5ZM4 8.5H12V6.5H4V8.5ZM12 8.5C11.721 8.5 11.5 8.27895 11.5 8H13.5C13.5 7.17438 12.8256 6.5 12 6.5V8.5ZM11.5 8C11.5 7.72105 11.721 7.5 12 7.5V9.5C12.8256 9.5 13.5 8.82562 13.5 8H11.5Z" fill="#F1555D" mask="url(#path-3-inside-2_53_15583)"/>
<mask id="path-5-inside-3_53_15583" fill="white">
<path d="M9.33366 11.8335H6.66699C6.39366 11.8335 6.16699 11.6068 6.16699 11.3335C6.16699 11.0602 6.39366 10.8335 6.66699 10.8335H9.33366C9.60699 10.8335 9.83366 11.0602 9.83366 11.3335C9.83366 11.6068 9.60699 11.8335 9.33366 11.8335Z"/>
</mask>
<path d="M9.33366 11.8335H6.66699C6.39366 11.8335 6.16699 11.6068 6.16699 11.3335C6.16699 11.0602 6.39366 10.8335 6.66699 10.8335H9.33366C9.60699 10.8335 9.83366 11.0602 9.83366 11.3335C9.83366 11.6068 9.60699 11.8335 9.33366 11.8335Z" fill="#F1555D"/>
<path d="M9.33366 10.8335H6.66699V12.8335H9.33366V10.8335ZM6.66699 10.8335C6.94594 10.8335 7.16699 11.0545 7.16699 11.3335H5.16699C5.16699 12.1591 5.84137 12.8335 6.66699 12.8335V10.8335ZM7.16699 11.3335C7.16699 11.6124 6.94594 11.8335 6.66699 11.8335V9.8335C5.84137 9.8335 5.16699 10.5079 5.16699 11.3335H7.16699ZM6.66699 11.8335H9.33366V9.8335H6.66699V11.8335ZM9.33366 11.8335C9.05471 11.8335 8.83366 11.6124 8.83366 11.3335H10.8337C10.8337 10.5079 10.1593 9.8335 9.33366 9.8335V11.8335ZM8.83366 11.3335C8.83366 11.0545 9.05471 10.8335 9.33366 10.8335V12.8335C10.1593 12.8335 10.8337 12.1591 10.8337 11.3335H8.83366Z" fill="#F1555D" mask="url(#path-5-inside-3_53_15583)"/>
</svg>
