<svg width="20" height="20" viewBox="0 0 20 20" fill="none" xmlns="http://www.w3.org/2000/svg">
<g id="stickynote">
<g id="vuesax/outline/stickynote">
<g id="stickynote_2">
<path id="Vector" d="M6.66663 4.7915C6.32496 4.7915 6.04163 4.50817 6.04163 4.1665V1.6665C6.04163 1.32484 6.32496 1.0415 6.66663 1.0415C7.00829 1.0415 7.29163 1.32484 7.29163 1.6665V4.1665C7.29163 4.50817 7.00829 4.7915 6.66663 4.7915Z" fill="#64748B"/>
<path id="Vector_2" d="M13.3334 4.7915C12.9917 4.7915 12.7084 4.50817 12.7084 4.1665V1.6665C12.7084 1.32484 12.9917 1.0415 13.3334 1.0415C13.675 1.0415 13.9584 1.32484 13.9584 1.6665V4.1665C13.9584 4.50817 13.675 4.7915 13.3334 4.7915Z" fill="#64748B"/>
<path id="Vector_3" d="M12.5 9.7915H5.83337C5.49171 9.7915 5.20837 9.50817 5.20837 9.1665C5.20837 8.82484 5.49171 8.5415 5.83337 8.5415H12.5C12.8417 8.5415 13.125 8.82484 13.125 9.1665C13.125 9.50817 12.8417 9.7915 12.5 9.7915Z" fill="#64748B"/>
<path id="Vector_4" d="M10 13.125H5.83337C5.49171 13.125 5.20837 12.8417 5.20837 12.5C5.20837 12.1583 5.49171 11.875 5.83337 11.875H10C10.3417 11.875 10.625 12.1583 10.625 12.5C10.625 12.8417 10.3417 13.125 10 13.125Z" fill="#64748B"/>
<path id="Vector_5" d="M12.5 18.9582H7.5C2.81667 18.9582 1.875 16.7498 1.875 13.1832V8.0415C1.875 4.0915 3.20833 2.48317 6.63333 2.2915H13.3333C16.7917 2.48317 18.125 4.0915 18.125 8.0415V13.3332C18.125 13.6748 17.8417 13.9582 17.5 13.9582C17.1583 13.9582 16.875 13.6748 16.875 13.3332V8.0415C16.875 4.40817 15.6667 3.67484 13.3 3.5415H6.66667C4.33333 3.67484 3.125 4.40817 3.125 8.0415V13.1832C3.125 16.3748 3.73333 17.7082 7.5 17.7082H12.5C12.8417 17.7082 13.125 17.9915 13.125 18.3332C13.125 18.6748 12.8417 18.9582 12.5 18.9582Z" fill="#64748B"/>
<path id="Vector_6" d="M12.5 18.9585C12.4167 18.9585 12.3417 18.9418 12.2583 18.9085C12.025 18.8085 11.875 18.5835 11.875 18.3335V15.8335C11.875 13.8168 12.9833 12.7085 15 12.7085H17.5C17.75 12.7085 17.9833 12.8585 18.075 13.0918C18.175 13.3252 18.1167 13.5918 17.9417 13.7752L12.9417 18.7752C12.825 18.8918 12.6667 18.9585 12.5 18.9585ZM15 13.9585C13.6833 13.9585 13.125 14.5168 13.125 15.8335V16.8252L15.9917 13.9585H15Z" fill="#64748B"/>
</g>
</g>
</g>
</svg>
