<svg width="20" height="20" viewBox="0 0 20 20" fill="none" xmlns="http://www.w3.org/2000/svg">
<path d="M17.5 4.375H2.5C2.15833 4.375 1.875 4.09167 1.875 3.75C1.875 3.40833 2.15833 3.125 2.5 3.125H17.5C17.8417 3.125 18.125 3.40833 18.125 3.75C18.125 4.09167 17.8417 4.375 17.5 4.375Z" fill="#475569"/>
<path d="M10.3917 8.5415H2.5C2.15833 8.5415 1.875 8.25817 1.875 7.9165C1.875 7.57484 2.15833 7.2915 2.5 7.2915H10.3917C10.7333 7.2915 11.0167 7.57484 11.0167 7.9165C11.0167 8.25817 10.7417 8.5415 10.3917 8.5415Z" fill="#475569"/>
<path d="M17.5 12.7085H2.5C2.15833 12.7085 1.875 12.4252 1.875 12.0835C1.875 11.7418 2.15833 11.4585 2.5 11.4585H17.5C17.8417 11.4585 18.125 11.7418 18.125 12.0835C18.125 12.4252 17.8417 12.7085 17.5 12.7085Z" fill="#475569"/>
<path d="M10.3917 16.875H2.5C2.15833 16.875 1.875 16.5917 1.875 16.25C1.875 15.9083 2.15833 15.625 2.5 15.625H10.3917C10.7333 15.625 11.0167 15.9083 11.0167 16.25C11.0167 16.5917 10.7417 16.875 10.3917 16.875Z" fill="#475569"/>
</svg>
