<svg width="20" height="20" viewBox="0 0 20 20" fill="none" xmlns="http://www.w3.org/2000/svg">
<path d="M9.99999 3.875C6.01666 3.875 2.77499 7.11667 2.77499 11.1C2.77499 15.0833 6.01666 18.3333 9.99999 18.3333C13.9833 18.3333 17.225 15.0917 17.225 11.1083C17.225 7.125 13.9833 3.875 9.99999 3.875ZM10.625 10.8333C10.625 11.175 10.3417 11.4583 9.99999 11.4583C9.65833 11.4583 9.37499 11.175 9.37499 10.8333V6.66667C9.37499 6.325 9.65833 6.04167 9.99999 6.04167C10.3417 6.04167 10.625 6.325 10.625 6.66667V10.8333Z" fill="#F1555D"/>
<path d="M12.4083 2.87533H7.59167C7.25833 2.87533 6.99167 2.60866 6.99167 2.27533C6.99167 1.94199 7.25833 1.66699 7.59167 1.66699H12.4083C12.7417 1.66699 13.0083 1.93366 13.0083 2.26699C13.0083 2.60033 12.7417 2.87533 12.4083 2.87533Z" fill="#F1555D"/>
</svg>
