<svg width="80" height="80" viewBox="0 0 80 80" fill="none" xmlns="http://www.w3.org/2000/svg">
<rect x="7.05884" y="7.05908" width="65.8824" height="65.8824" rx="32.9412" fill="#FDE9EA"/>
<path d="M38.6743 49.4164C38.388 49.4164 38.1018 49.311 37.8758 49.085L35.6159 46.8251C35.179 46.3882 35.179 45.665 35.6159 45.2281C36.0528 44.7912 36.776 44.7912 37.2129 45.2281L38.7044 46.7196L42.8023 42.9381C43.2543 42.5162 43.9775 42.5464 44.3993 42.9983C44.8212 43.4503 44.791 44.1735 44.3391 44.5953L39.4426 49.1151C39.2317 49.311 38.9605 49.4164 38.6743 49.4164Z" fill="#F8AAAE"/>
<path d="M29.7401 31.5332C29.4538 31.5332 29.1525 31.4126 28.9416 31.2017C28.5047 30.7648 28.5047 30.0416 28.9416 29.6047L34.4105 24.1358C34.8474 23.6989 35.5706 23.6989 36.0075 24.1358C36.4444 24.5727 36.4444 25.2959 36.0075 25.7328L30.5386 31.2017C30.3126 31.4126 30.0263 31.5332 29.7401 31.5332Z" fill="#F8AAAE"/>
<path d="M50.2599 31.5332C49.9736 31.5332 49.6874 31.4277 49.4614 31.2017L43.9925 25.7328C43.5556 25.2959 43.5556 24.5727 43.9925 24.1358C44.4294 23.6989 45.1526 23.6989 45.5895 24.1358L51.0584 29.6047C51.4953 30.0416 51.4953 30.7648 51.0584 31.2017C50.8475 31.4126 50.5462 31.5332 50.2599 31.5332Z" fill="#F8AAAE"/>
<path d="M52.369 37.8912C52.2636 37.8912 52.1581 37.8912 52.0527 37.8912H51.7062H27.9472C26.8926 37.9063 25.6873 37.9063 24.8135 37.0325C24.1205 36.3545 23.8041 35.2999 23.8041 33.7481C23.8041 29.605 26.8323 29.605 28.2787 29.605H51.7212C53.1675 29.605 56.1958 29.605 56.1958 33.7481C56.1958 35.315 55.8794 36.3545 55.1864 37.0325C54.4029 37.8159 53.3483 37.8912 52.369 37.8912ZM28.2787 35.6313H52.0677C52.7457 35.6464 53.3785 35.6464 53.5894 35.4355C53.6949 35.33 53.9208 34.9684 53.9208 33.7481C53.9208 32.0457 53.499 31.8649 51.7062 31.8649H28.2787C26.4858 31.8649 26.064 32.0457 26.064 33.7481C26.064 34.9684 26.305 35.33 26.3954 35.4355C26.6063 35.6313 27.2542 35.6313 27.9171 35.6313H28.2787Z" fill="#F8AAAE"/>
<path d="M44.354 56.196H35.2692C29.8756 56.196 28.6704 52.987 28.2033 50.1998L26.079 37.1678C25.9736 36.5501 26.3954 35.9776 27.0131 35.8721C27.6158 35.7667 28.2033 36.1885 28.3088 36.8062L30.4331 49.8232C30.87 52.4898 31.7739 53.9362 35.2692 53.9362H44.354C48.2259 53.9362 48.6628 52.5802 49.16 49.9588L51.6911 36.7761C51.8116 36.1584 52.3992 35.7516 53.0169 35.8872C53.6346 36.0077 54.0263 36.5953 53.9058 37.213L51.3747 50.3957C50.7871 53.454 49.8078 56.196 44.354 56.196Z" fill="#F8AAAE"/>
<circle cx="40" cy="40" r="38.5714" stroke="#F8AAAE" stroke-width="2.85714"/>
</svg>
