<svg width="24" height="24" viewBox="0 0 24 24" fill="none" xmlns="http://www.w3.org/2000/svg">
<path d="M11.9983 22.6298C11.3283 22.6298 10.6483 22.4798 10.1183 22.1698L4.61828 18.9998C2.37828 17.4898 2.23828 17.2598 2.23828 14.8898V9.1098C2.23828 6.7398 2.36828 6.5098 4.56828 5.0198L10.1083 1.8198C11.1583 1.2098 12.8083 1.2098 13.8583 1.8198L19.3783 4.9998C21.6183 6.5098 21.7583 6.7398 21.7583 9.1098V14.8798C21.7583 17.2498 21.6283 17.4798 19.4283 18.9698L13.8883 22.1698C13.3483 22.4798 12.6683 22.6298 11.9983 22.6298ZM11.9983 2.8698C11.5783 2.8698 11.1683 2.9498 10.8783 3.1198L5.37828 6.2998C3.74828 7.3998 3.74828 7.3998 3.74828 9.1098V14.8798C3.74828 16.5898 3.74828 16.5898 5.41828 17.7198L10.8783 20.8698C11.4683 21.2098 12.5383 21.2098 13.1283 20.8698L18.6283 17.6898C20.2483 16.5898 20.2483 16.5898 20.2483 14.8798V9.1098C20.2483 7.3998 20.2483 7.3998 18.5783 6.2698L13.1183 3.1198C12.8283 2.9498 12.4183 2.8698 11.9983 2.8698Z" fill="#475569"/>
<path d="M12 15.75C9.93 15.75 8.25 14.07 8.25 12C8.25 9.93 9.93 8.25 12 8.25C14.07 8.25 15.75 9.93 15.75 12C15.75 14.07 14.07 15.75 12 15.75ZM12 9.75C10.76 9.75 9.75 10.76 9.75 12C9.75 13.24 10.76 14.25 12 14.25C13.24 14.25 14.25 13.24 14.25 12C14.25 10.76 13.24 9.75 12 9.75Z" fill="#475569"/>
</svg>
