<svg width="32" height="32" viewBox="0 0 32 32" fill="none" xmlns="http://www.w3.org/2000/svg">
<path opacity="0.4" d="M23.48 14.2537H27.3334C27.6985 14.2537 28 14.5552 28 14.9203V21.907C28 24.1235 27.2319 25.7971 26.037 26.9194C24.8355 28.0478 23.1506 28.667 21.24 28.667H10.76C8.84952 28.667 7.16461 28.0478 5.96311 26.9194C4.7682 25.7971 4.00004 24.1235 4.00004 21.907V10.0937C4.00004 7.8772 4.7682 6.20353 5.96311 5.08127C7.16461 3.95281 8.84952 3.33366 10.76 3.33366H16.4134C16.7785 3.33366 17.08 3.63518 17.08 4.00033V7.85366C17.08 11.3818 19.9519 14.2537 23.48 14.2537Z" fill="#F1555D" stroke="#F1555D" stroke-width="1.33333" stroke-linecap="round"/>
<path d="M23.2469 11.0812L23.2469 11.0811H23.2399C21.5771 11.0811 20.2399 9.74883 20.2399 8.1878V3.53446C20.2399 3.48836 20.2526 3.45964 20.2682 3.43826C20.2863 3.41346 20.3167 3.38813 20.359 3.37151C20.4434 3.33829 20.5287 3.35269 20.5952 3.4192C21.9264 4.75042 23.9248 6.76706 25.6744 8.5326C26.5171 9.38293 27.302 10.175 27.9269 10.8042L27.9285 10.8059C27.9629 10.8403 27.9725 10.8684 27.9757 10.8886C27.9796 10.9127 27.9769 10.9441 27.9619 10.978C27.9326 11.0444 27.8706 11.0945 27.7732 11.0945C26.2653 11.0945 24.5093 11.0945 23.2469 11.0812ZM27.7732 11.7611C28.5332 11.7611 28.9332 10.8678 28.3999 10.3345C27.7762 9.70639 26.992 8.91508 26.1498 8.06523C24.3996 6.29908 22.3988 4.28006 21.0666 2.9478C20.5199 2.40113 19.5732 2.77446 19.5732 3.53446V8.1878C19.5732 10.1345 21.2266 11.7478 23.2399 11.7478C24.5065 11.7611 26.2663 11.7611 27.7729 11.7611H27.7732Z" fill="#F1555D" stroke="#F1555D" stroke-width="1.33333" stroke-linecap="round"/>
<path d="M11.9977 14.3337H11.9978C12.0312 14.338 12.055 14.3414 12.077 14.3456C12.1041 14.3507 12.1182 14.355 12.1258 14.3579L12.1639 14.3722C12.1727 14.3778 12.1801 14.3828 12.1863 14.3873C12.2163 14.4208 12.2455 14.4468 12.2693 14.4659L14.9018 17.0984C15.0281 17.2247 15.0281 17.4426 14.9018 17.5689C14.8334 17.6373 14.7526 17.667 14.6665 17.667C14.5805 17.667 14.4997 17.6373 14.4313 17.5689L13.4713 16.6089L12.3332 15.4709V17.0803V22.667C12.3332 22.8455 12.1784 23.0003 11.9999 23.0003C11.8214 23.0003 11.6665 22.8455 11.6665 22.667V17.0803V15.4709L10.5285 16.6089L9.56848 17.5689C9.44216 17.6952 9.22427 17.6952 9.09795 17.5689C8.97164 17.4426 8.97164 17.2247 9.09795 17.0984L11.7646 14.4317L11.7827 14.4136L11.7877 14.4079C11.7941 14.4038 11.8041 14.398 11.82 14.3896C11.8376 14.3802 11.8568 14.3706 11.8847 14.3566L11.8958 14.3511C11.9086 14.3469 11.9199 14.3433 11.9301 14.3403C11.9406 14.3372 11.9487 14.3351 11.9547 14.3337H11.9549H11.9551H11.9553H11.9555H11.9557H11.956H11.9562H11.9564H11.9566H11.9568H11.957H11.9572H11.9574H11.9576H11.9578H11.958H11.9582H11.9585H11.9587H11.9589H11.9591H11.9593H11.9595H11.9597H11.9599H11.9601H11.9603H11.9605H11.9607H11.9609H11.9611H11.9613H11.9615H11.9617H11.962H11.9622H11.9624H11.9626H11.9628H11.963H11.9632H11.9634H11.9636H11.9638H11.964H11.9642H11.9644H11.9646H11.9648H11.965H11.9652H11.9654H11.9656H11.9658H11.966H11.9662H11.9664H11.9666H11.9668H11.967H11.9672H11.9674H11.9676H11.9678H11.968H11.9682H11.9684H11.9686H11.9688H11.969H11.9692H11.9694H11.9696H11.9698H11.97H11.9702H11.9704H11.9706H11.9708H11.971H11.9712H11.9714H11.9716H11.9718H11.972H11.9722H11.9724H11.9726H11.9728H11.973H11.9732H11.9734H11.9736H11.9738H11.974H11.9742H11.9744H11.9746H11.9748H11.975H11.9752H11.9754H11.9756H11.9758H11.976H11.9762H11.9764H11.9766H11.9768H11.977H11.9772H11.9773H11.9775H11.9777H11.9779H11.9781H11.9783H11.9785H11.9787H11.9789H11.9791H11.9793H11.9795H11.9797H11.9799H11.9801H11.9803H11.9805H11.9807H11.9809H11.9811H11.9813H11.9815H11.9817H11.9819H11.9821H11.9822H11.9824H11.9826H11.9828H11.983H11.9832H11.9834H11.9836H11.9838H11.984H11.9842H11.9844H11.9846H11.9848H11.985H11.9852H11.9854H11.9856H11.9858H11.986H11.9862H11.9864H11.9865H11.9867H11.9869H11.9871H11.9873H11.9875H11.9877H11.9879H11.9881H11.9883H11.9885H11.9887H11.9889H11.9891H11.9893H11.9895H11.9897H11.9899H11.9901H11.9903H11.9905H11.9907H11.9908H11.991H11.9912H11.9914H11.9916H11.9918H11.992H11.9922H11.9924H11.9926H11.9928H11.993H11.9932H11.9934H11.9936H11.9938H11.994H11.9942H11.9944H11.9946H11.9948H11.995H11.9952H11.9954H11.9956H11.9957H11.9959H11.9961H11.9963H11.9965H11.9967H11.9969H11.9971H11.9973H11.9975H11.9977Z" fill="#F1555D" stroke="#F1555D" stroke-width="1.33333" stroke-linecap="round"/>
</svg>
