<svg width="32" height="32" viewBox="0 0 32 32" fill="none" xmlns="http://www.w3.org/2000/svg">
<path opacity="0.4" d="M27.332 13.5865H23.4787C20.3187 13.5865 17.7454 11.0132 17.7454 7.85317V3.99984C17.7454 3.2665 17.1454 2.6665 16.412 2.6665H10.7587C6.65203 2.6665 3.33203 5.33317 3.33203 10.0932V21.9065C3.33203 26.6665 6.65203 29.3332 10.7587 29.3332H21.2387C25.3454 29.3332 28.6654 26.6665 28.6654 21.9065V14.9198C28.6654 14.1865 28.0654 13.5865 27.332 13.5865Z" fill="#F1555D"/>
<path d="M21.0676 2.94682C20.5209 2.40015 19.5742 2.77349 19.5742 3.53349V8.18682C19.5742 10.1335 21.2276 11.7468 23.2409 11.7468C24.5076 11.7602 26.2676 11.7602 27.7742 11.7602C28.5342 11.7602 28.9342 10.8668 28.4009 10.3335C26.4809 8.40015 23.0409 4.92015 21.0676 2.94682Z" fill="#F1555D"/>
<path d="M18 18.3335H10C9.45333 18.3335 9 17.8802 9 17.3335C9 16.7868 9.45333 16.3335 10 16.3335H18C18.5467 16.3335 19 16.7868 19 17.3335C19 17.8802 18.5467 18.3335 18 18.3335Z" fill="#F1555D"/>
<path d="M15.3333 23.6665H10C9.45333 23.6665 9 23.2132 9 22.6665C9 22.1198 9.45333 21.6665 10 21.6665H15.3333C15.88 21.6665 16.3333 22.1198 16.3333 22.6665C16.3333 23.2132 15.88 23.6665 15.3333 23.6665Z" fill="#F1555D"/>
</svg>
