<svg width="40" height="41" viewBox="0 0 40 41" fill="none" xmlns="http://www.w3.org/2000/svg">
<rect y="0.5" width="40" height="40" rx="16" fill="#EDE9FE"/>
<path d="M15 14.25C14.59 14.25 14.25 13.91 14.25 13.5V10.5C14.25 10.09 14.59 9.75 15 9.75C15.41 9.75 15.75 10.09 15.75 10.5V13.5C15.75 13.91 15.41 14.25 15 14.25Z" fill="#8B5CF6"/>
<path d="M23 14.25C22.59 14.25 22.25 13.91 22.25 13.5V10.5C22.25 10.09 22.59 9.75 23 9.75C23.41 9.75 23.75 10.09 23.75 10.5V13.5C23.75 13.91 23.41 14.25 23 14.25Z" fill="#8B5CF6"/>
<path opacity="0.4" d="M28 17V25.5C28 28.5 26.5 30.5 23 30.5H15C11.5 30.5 10 28.5 10 25.5V17C10 14 11.5 12 15 12H23C26.5 12 28 14 28 17Z" fill="#8B5CF6"/>
<path d="M21 20.25H15C14.59 20.25 14.25 19.91 14.25 19.5C14.25 19.09 14.59 18.75 15 18.75H21C21.41 18.75 21.75 19.09 21.75 19.5C21.75 19.91 21.41 20.25 21 20.25Z" fill="#8B5CF6"/>
<path d="M18 25.25H15C14.59 25.25 14.25 24.91 14.25 24.5C14.25 24.09 14.59 23.75 15 23.75H18C18.41 23.75 18.75 24.09 18.75 24.5C18.75 24.91 18.41 25.25 18 25.25Z" fill="#8B5CF6"/>
<path d="M29 22.13C28.11 21.42 26.98 21 25.75 21C24.52 21 23.37 21.43 22.47 22.16C21.26 23.11 20.5 24.6 20.5 26.25C20.5 27.23 20.78 28.17 21.26 28.95C21.63 29.56 22.11 30.09 22.68 30.5C23.54 31.13 24.6 31.5 25.75 31.5C27.08 31.5 28.28 31.01 29.2 30.19C29.61 29.85 29.96 29.43 30.24 28.95C30.72 28.17 31 27.23 31 26.25C31 24.58 30.22 23.09 29 22.13ZM25.75 28.75C25.75 27.37 24.63 26.25 23.25 26.25C24.63 26.25 25.75 25.13 25.75 23.75C25.75 25.13 26.87 26.25 28.25 26.25C26.87 26.25 25.75 27.37 25.75 28.75Z" fill="#8B5CF6"/>
</svg>
