<svg width="32" height="32" viewBox="0 0 32 32" fill="none" xmlns="http://www.w3.org/2000/svg">
<rect width="32" height="32" rx="16" fill="#FBD4D6"/>
<path opacity="0.4" d="M22.6667 13.1799V13.9999H9.33333V13.0266C9.33333 11.4999 10.5733 10.2666 12.1 10.2666H18.6667V11.9799C18.6667 12.8266 19.1733 13.3333 20.02 13.3333H21.98C22.2467 13.3333 22.4733 13.2866 22.6667 13.1799Z" fill="#ED2B35"/>
<path d="M9.33333 14V18.9733C9.33333 20.5 10.5733 21.7333 12.1 21.7333H19.9C21.4267 21.7333 22.6667 20.5 22.6667 18.9733V14H9.33333ZM13.3333 19.5H12C11.7267 19.5 11.5 19.2733 11.5 19C11.5 18.7267 11.7267 18.5 12 18.5H13.3333C13.6067 18.5 13.8333 18.7267 13.8333 19C13.8333 19.2733 13.6067 19.5 13.3333 19.5ZM17.6667 19.5H15C14.7267 19.5 14.5 19.2733 14.5 19C14.5 18.7267 14.7267 18.5 15 18.5H17.6667C17.94 18.5 18.1667 18.7267 18.1667 19C18.1667 19.2733 17.94 19.5 17.6667 19.5Z" fill="#ED2B35"/>
<path d="M21.98 8.6665H20.02C19.1733 8.6665 18.6667 9.17317 18.6667 10.0198V11.9798C18.6667 12.8265 19.1733 13.3332 20.02 13.3332H21.98C22.8267 13.3332 23.3333 12.8265 23.3333 11.9798V10.0198C23.3333 9.17317 22.8267 8.6665 21.98 8.6665ZM22.6067 11.2865C22.54 11.3532 22.44 11.3998 22.3333 11.4065H21.3933L21.4 12.3332C21.3933 12.4465 21.3533 12.5398 21.2733 12.6198C21.2067 12.6865 21.1067 12.7332 21 12.7332C20.78 12.7332 20.6 12.5532 20.6 12.3332V11.3998L19.6667 11.4065C19.4467 11.4065 19.2667 11.2198 19.2667 10.9998C19.2667 10.7798 19.4467 10.5998 19.6667 10.5998L20.6 10.6065V9.67317C20.6 9.45317 20.78 9.2665 21 9.2665C21.22 9.2665 21.4 9.45317 21.4 9.67317L21.3933 10.5998H22.3333C22.5533 10.5998 22.7333 10.7798 22.7333 10.9998C22.7267 11.1132 22.68 11.2065 22.6067 11.2865Z" fill="#ED2B35"/>
</svg>
