<svg width="32" height="32" viewBox="0 0 32 32" fill="none" xmlns="http://www.w3.org/2000/svg">
<rect width="32" height="32" rx="16" fill="#D1FAE5"/>
<path opacity="0.4" d="M16 22.6668C19.6819 22.6668 22.6667 19.6821 22.6667 16.0002C22.6667 12.3183 19.6819 9.3335 16 9.3335C12.3181 9.3335 9.33333 12.3183 9.33333 16.0002C9.33333 19.6821 12.3181 22.6668 16 22.6668Z" fill="#047857"/>
<path d="M15.0533 18.3867C14.92 18.3867 14.7933 18.3334 14.7 18.2401L12.8133 16.3534C12.62 16.1601 12.62 15.8401 12.8133 15.6467C13.0066 15.4534 13.3266 15.4534 13.52 15.6467L15.0533 17.1801L18.48 13.7534C18.6733 13.5601 18.9933 13.5601 19.1866 13.7534C19.38 13.9467 19.38 14.2667 19.1866 14.4601L15.4066 18.2401C15.3133 18.3334 15.1866 18.3867 15.0533 18.3867Z" fill="#047857"/>
</svg>
