<svg width="32" height="32" viewBox="0 0 32 32" fill="none" xmlns="http://www.w3.org/2000/svg">
<rect width="32" height="32" rx="16" fill="#FAE8FF"/>
<path opacity="0.4" d="M18.7933 13.9064C18.5333 13.9064 18.3267 13.6998 18.3267 13.4398V12.5864C18.3267 11.9331 18.0467 11.3064 17.5667 10.8664C17.0733 10.4198 16.44 10.2131 15.7733 10.2731C14.6533 10.3798 13.6733 11.5198 13.6733 12.7064V13.3064C13.6733 13.5664 13.4667 13.7731 13.2067 13.7731C12.9467 13.7731 12.74 13.5664 12.74 13.3064V12.7064C12.74 11.0398 14.0867 9.49977 15.68 9.34644C16.6067 9.25977 17.5 9.5531 18.1867 10.1798C18.8667 10.7931 19.2533 11.6731 19.2533 12.5864V13.4398C19.2533 13.6998 19.0467 13.9064 18.7933 13.9064Z" fill="#D946EF"/>
<path d="M21.3067 13.9732C20.7467 13.3532 19.8267 13.0532 18.48 13.0532H13.52C12.1733 13.0532 11.2533 13.3532 10.6933 13.9732C10.0467 14.6932 10.0667 15.6532 10.14 16.3199L10.6067 20.0332C10.7467 21.3332 11.2733 22.6666 14.14 22.6666H17.86C20.7267 22.6666 21.2533 21.3332 21.3933 20.0399L21.86 16.3132C21.9333 15.6532 21.9467 14.6932 21.3067 13.9732ZM13.6133 16.7666H13.6067C13.24 16.7666 12.94 16.4666 12.94 16.0999C12.94 15.7332 13.24 15.4332 13.6067 15.4332C13.98 15.4332 14.28 15.7332 14.28 16.0999C14.28 16.4666 13.98 16.7666 13.6133 16.7666ZM18.28 16.7666H18.2733C17.9067 16.7666 17.6067 16.4666 17.6067 16.0999C17.6067 15.7332 17.9067 15.4332 18.2733 15.4332C18.6467 15.4332 18.9467 15.7332 18.9467 16.0999C18.9467 16.4666 18.6467 16.7666 18.28 16.7666Z" fill="#D946EF"/>
</svg>
