<svg width="500" height="248" viewBox="0 0 500 248" fill="none" xmlns="http://www.w3.org/2000/svg">
<g clip-path="url(#clip0_1484_15999)">
<path d="M173.619 116.038L173.978 115.303L175.316 114.692L176.401 113.207L178.001 112.367L178.654 112.522L178.744 113.745L179.323 113.794L179.266 114.814L180.767 115.034L181.681 115.907L182.497 115.956L183.681 115.059L185.648 115.589L187.965 115.287L188.675 113.957L190.005 112.889L190.389 109.928L188.39 108.199L187.973 107.424L187.867 106.249L188.602 104.928L187.916 101.909L188.292 101.51L188.847 101.844L189.769 101.746L190.87 100.351L191.515 98.0103L193.025 97.3414L193.514 97.3658L194.224 98.0918L195.302 98.1571L195.865 97.8961L197.587 98.2223L201.602 97.5942L202.499 97.945L203.585 97.3495L204.735 97.7737L206.343 96.2157L209.338 95.3755L211.003 96.1423L211.517 97.4229L211.574 99.242L210.26 100.351L210.432 100.849L216.079 99.9517L217.776 96.2728L221.914 91.5009H227.414L228.761 91.1583L231.731 89.5676L234.253 89.9021L235.485 89.0537L236.636 89.7308L237.909 89.7715L239.737 90.4567L240.381 91.3051L242.626 92.9284L243.833 93.377L246.38 95.4408H248.86L252.761 94.0133L254.002 95.4815L255.487 94.5761L256.483 94.5435L258.36 93.3607L260.286 93.4341L260.783 94.1275L261.705 94.4864L265.598 93.948L272.216 94.2498L274.289 93.0833L275.848 94.6985L280.157 95.0982L281.152 96.3462L288.44 97.4066L290.023 96.3217L291.272 94.209L293.067 95.8894L294.324 95.7181L295.393 96.0444L297.67 98.5568L298.878 98.9402L297.735 99.4622L296.846 102.676L293.23 105.996L293.402 108.99L292.675 109.699L293.361 110.238L293.859 112.375L291.843 113.68L291.737 114.471L291.965 116.193L292.659 116.405L292.406 118.036L292.798 118.982L294.487 118.746L298.07 121.805L298.943 123.681L299.996 124.651L301.203 127.4L302.281 128.281L301.448 129.864L301.758 132.621L302.191 133.396L301.726 133.877L301.758 134.522L303.39 135.321L305.259 134.921L305.798 136.129L306.9 136.308L306.41 138.935L304.533 142.63L304.541 144.131L303.839 145.452L302.721 146.423L302.281 148.797L303.048 149.971L302.876 151.546L303.293 152.182L303.562 151.79L304.19 152.157L304.655 151.986L304.663 152.916L305.112 153.34L304.884 153.813L307.838 153.732L309.601 153.169L310.392 152.59L311.584 150.665L312.579 150.363L313.11 152.043L314.383 152.027L315.803 151.285L316.57 151.896L316.586 152.476L317.109 153.609L316.366 154.384L315.256 154.711L314.579 156.228L312.473 158.243L312.212 159.385L312.653 160.274L312.539 161.579L311.274 163.292L311.967 164.825L311.861 165.323L309.96 167.134L309.593 168.113L308.181 169.785L308.662 170.495L307.952 171.669L305.48 174.059L305.145 174.736L305.3 175.625L305.039 175.348L304.696 175.568L304.459 177.551L302.844 177.485L303.268 178.57L300.975 178.962L298.747 177.224L297.033 176.523L295.842 176.939L296.552 177.681L295.94 178.896L294.928 179.247L293.72 179.068L294.104 180.316L291.484 180.683L290.888 180.251L289.566 180.373L288.734 179.835L287.836 180.047L287.665 180.61L288.252 181.376L287.648 183.75L284.98 185.83L283.707 187.502L282.883 187.38L282.173 188.114L282.001 188.514L282.899 188.954L282.858 189.232L281.324 189.998L280.695 191.067L280.263 191.197L279.684 190.365L278.802 189.998L276.476 190.651L275.513 191.149L275.203 191.834L274.085 191.475L273.114 193.057L271.98 193.253L270.715 195.725L268.226 196.206L267.459 196.704L267.72 195.219L268.675 193.84L267.418 191.442L266.414 191.613L265.68 190.961L264.064 190.871L263.648 189.794L262.611 191.85H261.844L260.718 190.863L259.494 191.915L259.412 192.731L258.351 192.927L257.388 191.565L257.886 191.132L258.033 190.349L259.347 189.085L258.759 187.682L257.829 187.894L257.184 186.784L255.805 186.067L255.414 185.21L254.149 184.884L253.235 184.998L252.239 186.613L250.648 186.825L249.652 186.434L248.338 185.21L247.473 181.817L246.6 181.531L245.555 181.964L244.095 180.487L242.095 182.037L241.548 183.04L240.83 183.342L239.606 184.737L238.447 185.063L236.807 186.213L236.122 185.83L234.881 186.654L235.053 188.334L233.233 190.602L233.657 193.359L232.131 194.885L232.4 197.014L231.364 199.02L231.69 200.048L230.842 200.774L229.985 200.717L229.862 202.185L229.332 202.283L228.63 201.304L228.597 200.007L227.61 199.885L225.806 201.679L223.791 202.25L222.534 201.1L221.506 201.32L221.416 201.745L220.167 201.329L218.731 201.696L217.842 201.263L215.287 201.614L213.778 202.487L213.108 203.409L211.125 203.955L210.676 205.513L210.015 206.035L208.84 205.603L208.057 204.804L207.159 204.714L205.339 205.375L200.647 203.523L200.002 203.58L199.407 204.592L198.223 204.681L196.648 203.645L196.101 203.735L195.832 204.298L194.143 205.399L193.066 204.298L191.997 204.616L190.25 203.05L190.234 200.97L191.123 200.554L191.433 199.224L193.237 197.935L194.73 195.635L194.396 193.685L193.278 191.981L193.931 191.54L194.175 189.925L195.049 189.142L194.428 188.489L195.196 187.641L193.261 186.311L191.956 187.894L190.879 188.245L189.94 187.894L189.687 188.277L186.447 189.378L185.656 188.644L184.595 190.39L183.811 189.101L183.061 188.881L182.538 190.341L183.183 192.25L179.551 192.046L176.769 191.279L175.985 190.48L174.076 189.868L173.578 190.153L173.676 191.214L173.39 191.418L171.97 191.149L171.513 188.62L172.346 187.527L172.974 187.665L174.337 186.067L172.607 183.424L172.664 182.771L173.366 182.73L173.406 182.388L172.248 180.968L172.811 179.402L173.774 178.595L175.177 178.13L175.128 175.536L176.042 173.089L175.512 171.286L174.443 171.155L173.847 170.152L173.692 168.048L172.492 164.76L170.583 163.741L170.15 163.912L169.383 162.101L167.71 160.551L167.865 159.662L166.886 158.797L165.621 158.838L164.356 160.706L162.838 161.75L163.05 162.223L162.398 163.023L161.835 163.096L161.949 164.181L161.092 164.499L161.157 166.237L160.561 166.848L158.864 167.974L158.595 167.289L157.093 166.954L156.506 167.697L154.27 168.822L151.919 167.999L150.556 170.128L149.349 171.221L148.932 172.257L148.508 171.93L148.606 171.221L147.863 170.405L147.741 169.499L146.868 168.105L146.754 162.851L147.006 161.832L147.847 161.098L147.904 160.119L149.324 156.652L148.655 155.795L148.5 154.099L147.308 154.034L149.324 150.991L148.312 151.113L148.908 148.062L148.304 146.961L148.035 147.182L147.121 146.733L145.872 146.725L145.121 147.027L144.934 147.899L143.971 147.744L144.33 146.031L145.546 144.865L145.456 144.049L144.811 143.185L144.648 141.545L145.056 138.568L146.435 138.51L148.924 139.179L152.025 139.147L152.907 138.372L153.894 138.266L154.278 137.32L154.172 135.925L154.816 134.823L155.951 134.065L157.558 130.884L158.913 129.497L160.561 130.345L161.786 130.639L162.667 130.427L164.397 131.226L164.544 130.149L164.144 128.404L166.478 126.511L167.367 122.62L168.355 121.813L169.759 122.278L170.926 121.487L172.125 119.602L173.104 117.106L173.627 116.706L173.619 116.038Z" fill="#CBD5E1"/>
<path d="M10.0762 143.405L12.5081 143.421L12.6795 142.018L15.3644 141.716L18.1308 140.574L18.3757 141.023L19.5834 141.121V140.615L18.6613 139.538L18.7511 139.016L21.9745 140.957L23.6556 140.011L24.2351 141.161L25.0185 141.373L31.0329 140.019L33.1711 138.869L35.1867 138.51L35.6111 137.034L37.6186 135.769L43.1924 127.531L44.4247 128.624L45.6406 129.138L46.7505 131.332L46.93 132.759L46.6118 133.461L45.2163 134.301L44.1554 135.982L42.4824 136.112L41.8785 138.274L38.6632 140.484L38.3939 141.308L41.1359 143.258L41.5032 144.873L43.274 145.15L43.3312 146.3L44.9143 147.051L44.7348 147.638L44.0738 148.062L44.1472 148.894L43.6821 149.922L42.1234 150.46L42.0989 151.023L41.2175 152.182L41.3563 152.761L42.5804 154.188L44.8735 154.294L46.2935 155.836L49.0029 155.861L48.5703 158.365L49.9577 158.561L49.9169 159.645L51.092 160.168L52.2427 164.205L52.716 164.809L54.1196 164.262L55.6538 165.714L56.1598 167.697L54.8867 170.959L53.8748 171.408L54.7806 172.33L54.2992 173.643L55.205 173.733L55.6702 174.777L57.1146 175.935L57.49 176.09L58.4122 175.364L59.5057 176.612L56.6658 180.185L55.866 183.236L56.3638 183.758L57.49 183.864L59.9301 185.014V185.887L58.8937 187.372L59.0324 187.959L60.0117 188.408L60.0933 190.504L59.7913 190.977L58.5509 191.108L58.2734 191.793L56.829 191.85L55.8987 192.796L55.2621 194.232L52.8629 195.088L51.3042 194.036L49.9495 193.971L50.0229 192.095L48.4316 191.573L47.3789 192.511L47.7543 193.914L48.6438 194.411L47.7379 195.977L46.8158 195.741L44.4655 197.584L43.935 197.405L42.6048 198.196L41.5929 197.576L41.087 197.666L40.9319 198.278L41.3399 198.767L41.0625 200.08L41.7153 201.32L42.6293 202.006H43.4128L44.3023 200.937L45.2163 201.418L45.2734 202.071L44.0656 202.315L43.6657 204.803L41.9765 205.048L41.1441 204.2L40.7116 204.371L40.8095 205.627L41.3644 206.671L39.161 207.789L37.9043 209.486L37.1045 209.518L37.1943 210.375L36.2476 211.37L35.8559 210.163L34.387 210.929L32.2407 210.489L28.7643 212.153L27.0179 210.293L25.7611 210.252L24.5452 209.037L22.7172 210.342L20.8239 208.955L22.3336 207.177L22.0398 206.492L20.7504 205.929L22.2602 204.551L21.134 203.865L21.6644 202.886L21.1911 202.226L22.8151 201.125L22.4234 200.488L22.7906 200.097L21.3951 199.183L21.0361 198.702L21.3054 198.123L20.677 198L20.0731 197.225L20.5954 196.883L19.5508 194.428L18.139 194.844L17.1107 194.697L14.2463 191.858L12.5163 190.692L12.5571 188.554L11.3738 184.011L10.1415 182.208L10.9984 178.611L10.1333 177.811L8.12579 177.526L6.82008 175.503L7.17915 174.94L6.74663 175.152L5.64493 172.689L6.49365 172.542L6.03665 171.93L6.76295 170.503L3.61291 168.936L3.66188 167.558L1.86652 167.648L1.04229 167.003L0.911715 164.67L0.234375 163.292L0.438393 162.99L1.71963 163.006L1.73595 161.97L2.40513 160.649L1.88284 160.355L1.76859 159.319L2.7642 158.275L1.93181 156.676L1.69514 154.449L2.82132 153.813L2.51122 153.193L2.85397 152.288L3.58027 151.986L4.02095 151.121L5.67758 149.735L5.24506 148.911L5.53068 148.307L6.36308 147.956L7.03226 148.397L7.53006 148.258L7.1057 146.129L7.88097 145.966L7.77488 145.126L8.63992 144.596L8.83578 144.963L9.74162 144.93L9.54576 144.033L10.0762 143.405Z" fill="#CBD5E1"/>
<path d="M298.879 98.9396L300.332 100.114L301.547 99.7798L301.743 98.5399L301.303 98.0423L301.278 97.1695L301.898 96.2396L301.931 92.887L303.082 92.1773L303.212 91.7287L303.131 90.9619L302.225 90.2849L302.029 89.5589L304.959 86.5163L305.979 86.1574L306.526 85.3498L307.75 84.583L309.333 84.1752L310.639 82.5193L313.56 83.7265L316.131 85.5537L317.094 86.6631L318.628 87.2586L319.33 88.0253L320.693 88.0661L317.877 84.477L318.269 83.3676L320.268 81.4507L320.807 81.7933L321.753 83.7021L323.377 85.0725L323.59 85.9616L325.605 87.0465L326.634 86.4347L328.6 86.2879L331.563 90.9945L332.338 91.1577L334.076 92.4791L333.79 91.7368L334.043 89.7954L335.031 88.9471L335.015 87.7072L335.398 87.3646L338.067 86.4673L338.711 86.712L339.487 88.2456L341.266 86.8997L341.715 87.1362L342.114 88.2374L342.726 88.2864L343.64 87.642L343.796 87.4054L342.849 86.0024L342.947 84.9256L342.106 83.857L342.547 83.4981L343.526 84.1099L344.53 84.1915L346.366 85.5619L348.749 84.6483L348.586 85.3416L347.076 86.345L347.696 87.022L348.978 87.0057L349.214 87.5849L353.939 86.0921L355.865 86.606L357.293 87.6501L358.305 89.7791L358.73 89.9667L361.227 88.0906L363.194 91.3698L364.475 92.1202L364.834 94.4205L368.498 94.6326L370.963 95.636L373.427 95.8073L374.561 94.6979L375.312 95.3586L376.667 95.7665L377.442 97.7731L378.748 98.9885L380.372 97.2755L382.551 98.5562L382.787 97.7894L383.881 97.8302L383.832 99.3067L385.611 98.5399L386.052 99.9756L384.722 104.519L385.766 105.808L387.766 106.999L389.39 106.273L389.308 104.78L390.499 103.712L391.193 103.426L392.009 103.94L392.776 103.255L395.29 103.263L395.567 102.292L396.359 101.501L396.269 99.5432L396.53 99.2251L395.943 97.8139L396.318 97.3897L397.697 97.039L399.395 98.597L399.656 95.7175L400.153 96.4517L400.619 98.6623L402.43 98.9885L402.92 98.752V98.132L403.932 97.9771L405.45 96.8106L405.507 99.1843L406.551 99.4535L407.049 100.016L406.209 100.971L406.339 102.129L407.343 103.41L408.624 104.046L409.351 105.498L409.171 106.958L410.232 108.777L413.325 109.585L413.937 110.172L413.855 110.963L415.447 110.914L417.291 112.016L420.735 110.955L421.649 112.334L423.053 113.451L425.036 113.141L428.471 111.257L429.271 111.338L429.279 111.95L429.744 109.927L431.336 109.422L433.025 108.002L433.188 106.591L432.274 105.221L431.711 97.0879L432.013 95.2689L432.911 94.6326L434.322 94.8039L435.212 96.4435L435.726 96.2314L436.224 96.5903L436.86 96.1417L438.378 95.9541L442.785 97.6671L445.103 99.2496L446.621 101.803L449.616 102.121L450.228 103.263L453.117 103.279L456.732 102.447L461.767 102.537L462.134 101.868L461.889 97.4305L462.55 96.7045L464.166 96.0601L464.941 94.29L467.463 91.7287L470.238 92.0794L471.176 92.7402L472.033 96.2722L472.874 97.4876L473.086 99.4372L477.272 99.2904L479.068 98.5644L480.422 99.2904L483.279 99.429L483.874 99.845L483.115 103.744L483.874 105.392L484.103 108.345L483.417 109.079L482.928 110.474L480.692 112.717L480.3 114.838L481.842 116.061L481.875 117.75L480.977 118.761L479.982 123.607L476.815 124.626L474.702 126.731L472.294 128.468L471.699 130.54L470.474 131.764L469.112 131.805L467.896 133.379H466.908L466.843 134.178L466.296 134.276L464.599 138.078L463.979 145.231L462.379 156.423L462.567 159.555L462.958 160.518L463.774 160.485L463.44 161.505L461.783 162.1L462.216 163.463H461.204L460.877 163.83L460.143 163.585L459.147 164.074L458.723 163.373L457.915 164.572L457.678 163.381L457.017 162.704L456.732 163.357L455.573 163.242L455.238 163.879L452.806 161.921L451.746 162.981L449.403 163.658L449.102 164.042L448.946 163.569L445.854 163.74L444.572 164.743L444.058 164.694L444.442 165.29L443.993 165.951L443.209 165.779L442.418 165.029L441.602 165.518L441.381 164.849L441.341 165.82L440.9 165.763L441.08 165.07L440.631 164.825L440.108 165.461L440.525 166.35L440.117 166.538L440.133 165.91L439.815 165.844L439.472 166.636L438.803 166.367L438.517 166.954L438.093 166.734L437.872 165.551L436.24 165.543L435.922 165.951L435.857 169.344L434.951 169.825L434.388 169.85L434.502 169.279L433.319 169.124L432.951 168.569L430.071 168.765L429.353 168.039L426.545 167.582L425.346 166.832L425.517 165.347L424.881 165.371L424.391 164.809L424.889 163.936L424.513 163.226L422.742 162.182L421.755 162.394L420.963 161.374L420.849 158.715L420.604 158.821L419.217 154.832L418.556 154.514L418.009 153.495L418.213 153.013L417.405 151.92L417.65 151.268L417.307 151.088L417.438 148.78L417.16 148.062L416.736 148.135L416.573 146.471L415.847 146.765L414.81 145.949L414.165 146.267L413.619 147.303L412.517 147.14L412.06 146.3L411.432 146.765L410.452 146.773L410.248 145.949L409.024 144.864L408.078 142.646L408.102 141.267L407.376 141.006L407.327 140.557H406.821L406.698 139.88L405.621 140.084L405.107 139.252L404.544 139.342L403.434 138.184L402.381 137.939L401.459 136.544L400.594 136.675L400.039 137.368L399.843 139.578L399.37 140.035L397.999 139.407L396.106 140.084L393.592 139.848L391.266 140.19L391.152 139.75L390.76 140.386L391.642 140.655L390.605 141.03L391.217 141.65L390.842 142.646L390.246 142.556L390.736 143.51L389.691 144.195L389.814 144.783L389.022 144.897L386.852 144.114L386.46 144.416L384.036 142.621L383.473 142.67L383.424 143.29L382.412 142.858L382.045 143.575L381.359 143.38L381.376 144.195L380.209 144.652L379.923 144.399L379.833 144.807L379.442 144.546L378.797 145.37L378.177 144.799L376.226 145.647L374.676 148.608L373.713 148.861L372.758 148.739L371.901 148.005L371.828 146.382L371.346 145.533L369.796 145.027L368.89 144.326L367.78 144.913L367.772 144.244L367.103 144.456L366.156 144.22L365.544 143.633L365.226 143.943L364.434 143.551L362.59 144.326L361.61 145.501L360.982 144.758L360.239 145.134L359.505 144.824L359.399 143.421L358.167 143.168L358.044 142.279L357.465 142.776L356.91 140.965L356.053 140.207L352.732 141.096L351.556 141.022L350.308 139.342L349.908 139.415V137.637L349.157 137.841L349.728 136.821L346.252 138.004L340.254 138.673L339.87 139.22L339.389 138.698L338.01 138.673L335.48 139.88L333.187 139.946L332.305 140.99L331.987 140.655L331.408 141.226L330.265 141.455L329.686 142.238L328.437 142.23L327.433 142.735L327.156 143.314L323.834 142.026L322.961 144.179L322.023 143.828L321.435 142.996L320.48 143.339L319.86 144.089L319.942 145.305L320.611 146.063L320.268 146.92L320.374 149.212L319.264 149.449L318.334 151.357L316.588 152.475L316.571 151.896L315.804 151.284L314.384 152.026L313.111 152.043L312.581 150.362L311.585 150.664L310.394 152.589L309.602 153.168L307.839 153.731L304.885 153.813L305.114 153.34L304.665 152.915L304.657 151.986L304.192 152.157L303.563 151.79L303.294 152.181L302.878 151.545L303.049 149.971L302.282 148.796L302.723 146.422L303.841 145.452L304.542 144.13L304.534 142.629L306.411 138.934L306.901 136.307L305.799 136.128L305.261 134.921L303.392 135.32L301.76 134.521L301.654 134.064L302.192 133.395L301.76 132.62L301.45 129.863L302.282 128.281L301.205 127.4L299.997 124.651L298.944 123.68L298.071 121.804L294.488 118.745L292.799 118.982L292.407 118.035L292.66 116.404L291.967 116.192L291.738 114.471L291.844 113.68L293.86 112.374L293.362 110.237L292.677 109.699L293.403 108.989L293.232 105.996L296.847 102.676L297.736 99.4617L298.879 98.9396Z" fill="#CBD5E1"/>
<path d="M99.6965 132.458L100.904 132.025L101.337 131.25L101.998 131.381L102.936 130.541L103.206 129.595L103.165 127.523L102.569 127.05L101.875 124.602L101.247 124.023L100.831 121.185L101.998 119.985L103.083 119.879L104.063 121.062L108.118 120.972L109.693 121.878L110.885 121.462L113.782 124.105L114.9 127.629L116.255 128.942L117.413 128.306L118.719 129.007L119.609 128.779L120.645 129.334L121.82 132.629L122.759 134.024L122.506 135.557L120.531 137.466L121.869 138.567L121.184 139.35L121.159 140.207L121.453 140.623L124.015 140.59L124.97 141.349L126.602 144.114L127.867 145.477L128.3 147.614L128.838 148.364L131.425 149.147L132.144 148.715L132.364 147.703L132.625 148.764L133.743 149.8L134.11 148.527L135.71 147.614L138.354 144.93L140.688 143.837L143.054 141.626L144.646 141.545L144.809 143.184L145.454 144.049L145.543 144.865L144.328 146.031L143.968 147.744L144.931 147.899L145.119 147.026L145.87 146.725L147.118 146.733L148.032 147.181L148.302 146.961L148.906 148.062L148.31 151.113L149.322 150.991L147.306 154.033L148.498 154.099L148.653 155.795L149.322 156.652L147.902 160.119L147.845 161.097L147.004 161.832L146.751 162.851L146.866 168.104L147.739 169.499L147.861 170.405L148.604 171.22L148.506 171.93L148.93 172.256L149.346 171.22L150.554 170.127L151.917 167.998L154.267 168.822L156.503 167.697L157.091 166.954L158.592 167.289L158.862 167.974L160.559 166.848L161.155 166.236L161.09 164.499L161.947 164.181L161.832 163.096L162.395 163.023L163.048 162.223L162.836 161.75L164.354 160.706L165.619 158.838L166.884 158.797L167.863 159.662L167.708 160.551L169.381 162.101L170.148 163.912L170.581 163.74L172.49 164.76L173.69 168.047L173.845 170.152L174.441 171.155L175.51 171.286L176.04 173.088L175.126 175.536L175.175 178.13L173.771 178.595L172.808 179.402L172.245 180.968L173.404 182.388L173.363 182.73L172.662 182.771L172.604 183.424L174.335 186.066L172.972 187.665L172.343 187.527L171.511 188.62L171.968 191.148L173.388 191.418L173.673 191.214L173.576 190.153L174.073 189.868L175.983 190.479L176.766 191.279L179.549 192.046L183.181 192.25L182.536 190.341L183.058 188.881L183.809 189.101L184.593 190.39L185.653 188.644L186.445 189.378L189.685 188.277L189.938 187.894L190.876 188.244L191.954 187.894L193.259 186.311L195.193 187.641L194.426 188.489L195.046 189.142L194.173 189.925L193.928 191.54L193.276 191.98L194.394 193.685L194.728 195.635L193.235 197.935L191.431 199.224L191.121 200.554L190.232 200.97L190.248 203.05L189.824 203.213L189.677 203.931L188.844 204.02L187.457 205.75L183.442 205.309L180.896 206.215L179.492 205.815L179.19 205.334L178.668 206.19L178.79 206.59L177.174 206.565L176.326 206.973L175.379 206.345L174.294 206.957L173.535 208.148L173.951 208.368L174.057 209.045L173.053 210.179L173.412 212.047L172.996 213.923L172.776 213.499L172.376 214.086L172.768 214.209L171.748 215.016L170.164 214.706L169.471 215.065L169.25 214.682L168.777 215.081L169.136 215.351L168.361 215.693L167.92 216.46L168.279 217.219L169.185 217.765L169.634 219.193L168.851 219.307L169.422 221.86L167.994 223.532L168.671 224.894L168.287 225.164L168.589 225.531L168.173 226.371L168.5 228.043L168.198 228.206L168.377 229.985L170.874 230.564L171.511 231.469L173.51 232.415L174.245 234.381L175.95 235.376L175.779 236.665L170.972 235.956L166.182 237.277L165.105 240.442L161.286 243.134L159.743 243.786L155.622 244.423L151.313 243.387L148.995 243.493L146.988 244.716L145.078 245.092L144.483 245.018L143.136 243.958L141.243 243.493L138.109 245.002L135.783 245.304L131.393 247.017L127.239 247.792L121.584 246.413L116.907 246.511L113.961 245.548L108.363 244.529L104.503 244.512L102.153 245.834L99.4436 244.374L97.2075 246.062L94.2778 246.201L92.9721 246.723L89.5936 245.858L88.4184 246.397L85.3173 246.291L83.2364 246.747L81.3594 245.548L76.7078 244.496L75.2715 242.832L76.822 241.364L77.6789 237.522L79.2539 237.481L79.5803 238.027L80.5841 238.036L81.1309 238.492L81.8409 236.943L84.1993 235.393L84.5584 234.34L84.1748 231.861L85.1215 229.952L87.0392 229.307L88.549 227.04L91.0298 225.604L92.1642 224.217L90.1403 222.211L91.1033 220.539L90.5728 217.308L91.1931 214.07L90.1566 212.137L90.3688 210.399L90.0179 209.575L91.2991 208.588L90.8911 207.764L90.9564 206.582L90.2627 205.799L89.1202 205.709L87.6676 204.763L88.6061 203.515L88.0185 202.511L85.7825 204.216L84.8522 204.045L84.4768 202.267L85.5132 199.705L85.3908 197.96L82.9834 195.178L79.7436 193.163L81.8164 191.654L82.9752 191.613L83.677 192.641L84.3789 192.666L85.554 191.214L84.0116 188.163L85.6682 188.375L86.7047 188.098L87.6676 188.97L88.0512 188.098L89.9771 187.225L90.8666 186.262L91.0951 184.794L90.7932 183.717L88.4347 182.967L87.4473 181.352L87.7329 180.463L88.5408 180.944L89.5528 180.291L89.4711 179.402L88.9815 178.921L90.3362 176.743L89.8384 175.601L87.9532 175.405L87.3494 174.19L88.549 173.219L88.7856 169.826L89.7404 169.083L89.3651 167.37L90.6953 166.342L90.328 165.788L91.1686 165.347L91.495 164.246L93.625 161.008L95.0286 157.761L94.9796 157.092L95.9018 155.616L97.1994 155.591L96.9464 154.8L97.9828 153.25L97.6727 152.386L95.5835 150.917L93.0619 147.801L92.2621 147.181L89.4303 146.553L89.0958 145.974L88.4674 145.999L88.3858 145.15L89.8955 143.959L90.7034 139.718L92.2866 137.817L92.8007 135.786L94.5471 136.398L95.1592 137.066L97.5911 136.871L97.3626 135.982L98.4479 135.892L99.5415 134.889L99.6965 132.458Z" fill="#CBD5E1"/>
<path d="M389.901 22.4014L392.357 22.0017L393.418 22.173L393.851 22.8582L395.14 23.4863L395.638 24.6038L396.682 24.2857L398.339 24.457L398.698 25.338L401.04 27.2304L402.215 27.2059L403.187 26.7165L404.672 26.9531L405.774 25.0606L406.214 24.8975L408.516 26.4473L408.826 26.1129L408.458 25.3951L409.503 24.147L411.29 24.408L412.514 23.3231L413.298 24.0328L414.652 24.3509L415.093 23.9757L415.73 24.1225L416.75 22.9479L418.308 22.4422L419.304 24.7017L420.602 25.6969L420.626 26.5534L422.625 27.3528L424.2 26.3005L426.102 27.1815L426.51 29.025L427.285 28.9924L427.938 29.9549L429.725 31.0398L430.117 33.4217L430.9 34.6126L431.986 34.9308L431.872 33.0791L432.63 31.7332L433.977 31.2274L435.119 30.1425L436.474 30.0528L437.086 30.7706L437.094 31.7413L438.057 32.9975L438.563 33.0383L439.208 32.4755L440.187 32.7691L441.069 34.6126L441.909 35.5018L442.227 35.1021L443.166 35.0613L444.349 36.0483L446.447 35.5833L447.059 35.7954L449.025 40.7794L450.421 42.5088L453.195 44.8172L453.114 47.036L454.109 48.0311L453.285 52.0118L454.632 53.113L459.536 54.8668L462.89 55.4541L463.045 56.4901L466.024 57.8605L466.914 58.7333L467.673 58.4804L468.709 57.3955L469.909 57.5913L470.537 58.1949L470.823 59.2962L470.08 60.7644L470.096 61.6291L472.055 61.7515L478.151 63.9376L479.489 62.559L482.419 62.7629L483.431 64.5004L484.288 64.9246L484.451 66.0747L487.193 68.7584L487.691 68.8645L489.103 68.163L490.213 68.1956L493.387 70.4551L493.885 70.5449L495.035 69.6884L497.622 69.3294L499.671 70.5041L498.569 71.6461L498.381 78.1881L497.231 79.1588L497.941 81.0676L495.786 82.3727L494.097 81.9812L492.081 82.96L491.681 85.0646L490.988 85.5785L487.364 91.2885L487.928 92.4142L487.364 93.393L487.014 97.0719L484.933 98.2628L483.872 99.8453L483.276 99.4293L480.42 99.2906L479.065 98.5647L477.27 99.2906L473.083 99.4375L472.871 97.4879L472.03 96.2725L471.174 92.7404L470.235 92.0797L467.46 91.729L464.939 94.2903L464.164 96.0604L462.548 96.7048L461.887 97.4308L462.131 101.868L461.764 102.537L456.729 102.447L453.114 103.279L450.225 103.263L449.613 102.121L446.618 101.803L445.1 99.2498L442.782 97.6674L438.376 95.9544L436.858 96.142L436.221 96.5906L435.723 96.2317L435.209 96.4438L434.32 94.8042L432.908 94.6329L432.01 95.2692L431.708 97.0882L432.271 105.221L433.185 106.591L433.022 108.002L431.333 109.422L429.742 109.928L429.276 111.951L429.268 111.339L428.468 111.257L425.033 113.141L423.05 113.451L421.646 112.334L420.732 110.955L417.288 112.016L415.444 110.915L413.853 110.964L413.934 110.172L413.322 109.585L410.229 108.777L409.168 106.958L409.348 105.498L408.622 104.046L407.34 103.41L406.337 102.129L406.206 100.971L407.047 100.017L406.549 99.4538L405.504 99.1846L405.447 96.8109L403.929 97.9773L402.917 98.1323V98.7523L402.428 98.9888L400.616 98.6625L400.151 96.4519L399.653 95.7178L399.392 98.5973L397.694 97.0393L396.315 97.39L395.94 97.8142L396.527 99.2254L396.266 99.5435L396.356 101.501L395.564 102.292L395.287 103.263L392.773 103.255L392.006 103.94L391.19 103.426L390.497 103.712L389.305 104.78L389.387 106.273L387.763 106.999L385.763 105.808L384.719 104.519L386.049 99.9758L385.608 98.5402L383.829 99.3069L383.878 97.8305L382.785 97.7897L382.548 98.5565L380.369 97.2758L378.745 98.9888L377.439 97.7734L376.664 95.7667L375.31 95.3589L374.559 94.6982L373.424 95.8075L370.96 95.6362L368.495 94.6329L364.831 94.4208L364.472 92.1205L363.191 91.37L361.224 88.0909L358.727 89.967L358.303 89.7794L357.291 87.6504L355.863 86.6063L353.937 86.0924L349.212 87.5851L348.975 87.006L347.694 87.0223L347.073 86.3452L348.583 85.3419L348.746 84.6486L346.363 85.5622L344.527 84.1918L343.524 84.1102L342.544 83.4984L342.104 83.8573L342.944 84.9259L342.846 86.0026L343.793 87.4057L343.638 87.6422L342.724 88.2867L342.112 88.2377L341.712 87.1365L341.263 86.8999L339.484 88.2459L338.709 86.7123L338.064 86.4676L335.395 87.3649L335.012 87.7075L335.028 88.9474L334.041 89.7957L333.788 91.7371L334.073 92.4794L332.335 91.158L331.56 90.9948L328.598 86.2881L326.631 86.435L325.603 87.0468L323.587 85.9619L323.375 85.0727L321.751 83.7023L320.804 81.7936L320.265 81.451L318.266 83.3679L317.874 84.4773L320.69 88.0664L319.327 88.0256L318.625 87.2589L317.091 86.6634L316.128 85.554L313.557 83.7268L310.636 82.5195L309.33 84.1754L307.747 84.5833L306.523 85.3501L305.976 86.1576L304.956 86.5165L302.026 89.5592L302.222 90.2851L303.128 90.9622L303.21 91.729L303.079 92.1776L301.928 92.8873L301.896 96.2399L301.275 97.1698L301.3 98.0426L301.741 98.5402L301.545 99.7801L300.329 100.115L298.876 98.9399L297.668 98.5565L295.392 96.0441L294.323 95.7178L293.066 95.8891L291.27 94.2087L290.022 96.3214L288.439 97.4063L281.151 96.3459L280.155 95.0979L275.847 94.6982L276.198 93.809L278.874 93.287L280.743 91.6637L280.4 91.3293L278.923 91.2069L277.609 87.4709L278.034 86.3697L276.85 85.5866L275.912 83.3434L272.933 81.2144L273.203 80.4966L274.712 81.0105L277.381 79.844L277.373 77.3316L278.254 75.0884L278.107 72.8696L279.29 69.6884L279.405 67.8693L278.254 67.1678L277.161 67.8448L275.006 67.4696L274.043 67.6654L273.235 66.0911L273.113 67.0291L272.631 67.282L271.277 65.1448L269.889 65.2427L269.644 64.2883L267.792 65.0551L267.27 64.8675L268.037 62.9832L267.808 62.5427L268.118 61.5638L265.483 57.5097L264.977 55.8375L265.287 55.1197L267.474 53.4883L267.661 51.3837L269.4 50.617L271.326 50.7882L274.81 51.2369L276.785 52.9662L276.695 53.7493L277.846 55.1197L279.413 55.7478L282.204 58.0155L283.591 58.0481L283.689 54.5895L284.317 53.0233L284.978 52.4605L284.464 50.5191L285.166 49.6299L285.362 48.0311L287.068 45.6003L287.37 42.7208L289.01 40.0616L289.434 40.0779L290.152 41.5544L291.442 40.2982L290.862 39.0746L291.083 38.5525L292.16 38.4791L292.984 36.6764L294.543 36.1951L295.449 35.2081L296.297 36.0809L297.269 35.3957L299.529 35.8933L299.97 35.3305L300.631 35.2489L301.863 35.3957L302.908 36.2522H303.577L304.164 35.5589L304.311 31.7413L304.989 30.1425L303.609 30.2323L304.221 28.5927L305.323 28.3153L307.641 28.9924L308.628 27.7525L309.216 28.4377L309.257 29.8489L310.228 30.0202L311.827 29.4084L312.023 28.2908L312.456 27.8748L313.37 28.405L313.745 29.2779L314.071 27.9319L313.435 27.7443L313.614 26.5289L314.969 27.2631L315.287 27.1407L314.945 26.8062L317.115 26.741L319.107 28.0869L320.045 28.3153L320.469 29.7999L321.498 29.8489L323.872 30.8277L324.721 31.6353L326.215 31.9697L326.696 31.1132L327.561 31.26L328.434 30.3872L328.647 29.2615L329.52 28.1114L329.846 26.4065L332.58 28.6906L333.886 28.2337L336.783 26.0476L338.244 26.276L339.419 26.9368L340.626 26.6757L341.083 27.3283L340.871 28.3806L342.112 28.9679L341.296 30.0365L342.348 30.999L342.299 32.7446L344.478 32.2797L344.691 32.7202L344.356 33.9193L345.792 33.7969L346.69 34.4658L346.372 35.0613L345.776 34.2619L346.021 34.89L345.613 36.3583L346.992 35.9015L348.175 37.5982L349.032 37.6389L350.591 35.9423L351.423 35.8607L353.104 38.3812L352.264 39.4906L353.308 39.5151L353.733 38.838L354.867 38.5688L355.348 39.4172L355.12 40.1024L355.569 41.0894L357.127 42.4843L359.967 40.9834L362.44 41.0486L362.93 40.3797L362.236 38.3976L363.885 37.5574L364.252 35.9667L364.799 35.8362L366.896 33.5685L367.369 33.4625L368.12 33.9438L369.034 33.5196L369.703 34.2782L370.225 33.7072L371.335 33.544L372.315 32.1329L369.295 29.5144L369.303 28.6742L367.949 28.193L367.451 26.6594L367.818 26.0721L368.871 26.0068L371.654 24.9219L373.074 25.7377L373.645 24.2694L374.134 24.1633L376.46 25.2972L376.827 26.1945L377.513 26.3902L378.851 27.6709L378.957 28.5845L380.002 28.6498L380.745 28.2582L381.365 28.5519L382.972 26.635L382.687 25.444L383.536 23.9268L384.205 24.2612L386.327 22.5074L386.849 20.876L387.502 20.7944L389.901 22.4014Z" fill="#CBD5E1"/>
<path d="M31.8571 98.9641L36.0599 99.9103L37.2351 100.808L38.8101 100.848L39.4385 101.852L41.2828 103.255L42.6293 102.88L43.0945 104.03L45.5264 105.865L46.2445 106.917L47.4849 106.216L49.2395 106.852L48.5948 109.617L45.4692 111.241L45.3631 112.048L46.726 113.141L47.6073 112.717L48.0725 113.019L51.0022 110.727L51.4347 111.812L51.2715 112.35L52.9526 113.296L53.4586 112.937L53.989 113.704L54.9765 113.769L55.9966 115.743L57.1391 116.127L57.4655 117.301L57.188 118.696L55.9558 119.129L55.1478 121.51L55.6701 122.449L55.6375 123.811L56.4454 123.941L57.1799 126.772L60.028 131.935L60.6319 131.266L61.5377 131.658L61.7662 130.728L62.5496 130.41L63.6758 129.056L65.2427 129.757L68.9395 129.023L69.1435 128.876L68.3601 127.522L68.6538 126.348L69.2904 126.323L69.3067 126.862L69.7719 127.22L71.2734 127.335L71.1755 126.617L72.8566 125.565L73.232 125.695L74.4316 124.561L75.06 124.692L75.7129 123.803L77.6306 125.304L79.3607 127.938L82.9678 129.676L84.4367 129.431L84.7631 129.888L85.2528 129.504L86.2729 129.586L86.4524 127.718L87.7907 127.849L88.158 127.955L87.9948 129.203L88.5905 130.385L88.9659 130.41L89.1781 129.651L89.0965 130.443L89.3576 130.467L89.7983 129.61L90.7286 130.875L91.1774 130.622L93.8705 131.617L96.7757 131.829L98.0896 132.988L99.6972 132.457L99.5422 134.888L98.4486 135.891L97.3633 135.981L97.5918 136.87L95.1599 137.066L94.5478 136.397L92.8014 135.785L92.2873 137.817L90.7041 139.717L89.8962 143.959L88.3865 145.15L88.4681 145.998L89.0965 145.974L89.431 146.553L92.2628 147.181L93.0626 147.801L95.5842 150.917L97.6734 152.385L97.9835 153.25L96.9471 154.8L97.2001 155.591L95.9025 155.615L94.9803 157.092L95.0293 157.761L93.6257 161.007L91.4957 164.246L91.1693 165.347L90.3287 165.787L90.696 166.342L89.3658 167.37L89.7412 169.083L88.7863 169.825L88.5497 173.219L87.3501 174.189L87.954 175.405L89.8391 175.6L90.3369 176.742L88.9822 178.92L89.4718 179.402L89.5535 180.291L88.5415 180.943L87.7336 180.462L87.448 181.351L88.4354 182.966L90.7939 183.717L91.0958 184.794L90.8673 186.262L89.9778 187.224L88.0519 188.097L87.6683 188.97L86.7054 188.097L85.669 188.375L84.0123 188.162L85.5547 191.213L84.3796 192.665L83.6777 192.641L82.9759 191.613L81.8171 191.654L79.7443 193.163L82.9841 195.178L85.3915 197.959L85.5139 199.705L84.4775 202.266L84.8529 204.044L85.7832 204.216L88.0192 202.511L88.6068 203.514L87.6683 204.762L89.1209 205.708L90.2634 205.798L90.9571 206.581L90.8918 207.764L91.2999 208.588L90.0186 209.575L90.3695 210.399L90.1573 212.136L91.1938 214.07L90.5735 217.308L91.104 220.538L90.141 222.21L92.1649 224.217L91.0305 225.604L88.5497 227.039L87.04 229.307L85.1222 229.952L84.1755 231.86L84.5591 234.34L84.2 235.392L81.8416 236.942L81.1316 238.492L80.5848 238.035L79.5811 238.027L79.2546 237.481L77.6796 237.521L76.8227 241.363L75.2722 242.832L74.2276 241.633L70.0167 238.802L67.748 236.061L64.7693 236.942L63.9043 236.608L62.4027 234.006L61.9539 232.219L60.3707 230.319L58.1755 230.123L55.7354 228.491L54.4705 228.067L51.9407 222.61L49.1007 219.364L47.6808 218.442L43.7963 213.825L42.9068 213.515L38.247 213.629L36.7454 212.993L36.2476 211.37L37.1943 210.374L37.1045 209.518L37.9042 209.485L39.161 207.789L41.3644 206.671L40.8095 205.627L40.7115 204.371L41.144 204.199L41.9764 205.048L43.6657 204.803L44.0656 202.315L45.2734 202.07L45.2162 201.418L44.3022 200.937L43.4127 202.005H42.6293L41.7153 201.32L41.0624 200.08L41.3399 198.767L40.9319 198.277L41.0869 197.666L41.5929 197.576L42.6048 198.196L43.935 197.405L44.4655 197.584L46.8158 195.74L47.7379 195.977L48.6438 194.411L47.7542 193.913L47.3788 192.51L48.4316 191.572L50.0229 192.094L49.9495 193.97L51.3041 194.036L52.8628 195.088L55.2621 194.231L55.8986 192.796L56.829 191.85L58.2734 191.792L58.5509 191.107L59.7913 190.977L60.0932 190.504L60.0116 188.407L59.0324 187.959L58.8936 187.371L59.93 185.887V185.014L57.49 183.864L56.3638 183.758L55.866 183.236L56.6657 180.185L59.5057 176.612L58.4121 175.364L57.49 176.09L57.1146 175.935L55.6701 174.777L55.205 173.732L54.2991 173.643L54.7806 172.329L53.8748 171.408L54.8867 170.959L56.1598 167.696L55.6538 165.714L54.1196 164.262L52.716 164.809L52.2426 164.205L51.092 160.167L49.9168 159.645L49.9576 158.56L48.5703 158.364L49.0028 155.86L46.2935 155.836L44.8735 154.294L42.5803 154.188L41.3562 152.76L41.2175 152.181L42.0989 151.023L42.1233 150.46L43.682 149.922L44.1472 148.894L44.0737 148.062L44.7348 147.638L44.9143 147.05L43.3311 146.3L43.274 145.15L41.5031 144.873L41.1359 143.257L38.3939 141.308L38.6632 140.484L41.8785 138.273L42.4824 136.112L44.1554 135.981L45.2162 134.301L46.6117 133.461L46.93 132.759L46.7505 131.332L45.6406 129.137L44.4247 128.623L43.1924 127.53L37.6186 135.769L35.6111 137.033L35.1867 138.51L33.171 138.869L31.0329 140.019L25.0185 141.373L24.235 141.161L23.6556 140.011L21.9745 140.957L18.751 139.016L18.6613 139.538L19.5834 140.614V141.12L18.3756 141.022L18.1308 140.574L15.3643 141.716L12.6794 142.018L12.5081 143.421L10.0762 143.404L10.2883 143.029L9.84767 142.727L9.79055 142.148L10.5495 141.716L9.83951 140.884L9.88847 139.799L9.11321 138.616L9.10505 138.33L9.69262 138.273L9.22746 137.874L9.41515 136.821L9.02344 134.513L9.60285 133.958L9.64365 132.278L10.8514 131.544L11.6512 129.39L12.2306 129.088L11.5859 128.648L12.5081 128.477L12.0103 127.93L12.0592 125.72L15.5439 122.236L14.5482 121.062L14.6951 120.262L15.8703 119.088L15.9845 117.791L18.2369 114.683L18.5715 113.076L22.5131 110.376L22.6926 108.997L23.9412 107.668L23.9739 105.441L24.3166 104.674L28.1195 102.708L31.2369 99.0701L31.6694 98.7275L31.8571 98.9641Z" fill="#CBD5E1"/>
<path d="M130.217 40.1106L130.853 40.4369L132.844 39.9312L134.583 40.0209L134.525 41.791L135.203 42.8025L135.962 43.2185L137.659 46.4079L138.989 47.7539L138.908 49.165L140.181 50.511L140.393 51.4817L140.115 52.2484L140.679 53.0478L140.768 54.0185L142.254 55.0953L142.507 56.9551L143.6 57.4201L146.375 60.0548L148.031 60.9766L149.051 61.1397L149.133 62.4775L151.785 63.3829L152.006 65.6506L153.181 66.7682L152.487 68.2691L151.059 69.1908L150.292 70.3573L153.026 71.2872L154.307 73.3183L154.013 74.0443L154.282 74.7866L153.67 75.7655L154.078 76.7851L153.948 78.9223L152.96 79.4852L152.691 80.5619L151.116 82.4544L150.561 82.854L147.925 83.2456L146.097 84.4284L146.056 85.3094L145.134 86.7776L144.139 86.8837L142.588 87.7891L142.074 87.6912V88.6212L143.225 89.8774L147.485 90.2689L148.692 89.1595L150.471 88.7354L150.724 87.626L151.679 86.1577L152.805 85.7906L152.642 86.6634L153.32 87.5444L154.756 87.4955L156.502 86.8103L160.223 87.9686L162.207 87.5118L163.888 89.1758L164.141 89.9671L163.463 91.4354L162.974 91.2804L162.965 92.1369L162.084 93.6052L163.471 95.571L162.329 97.8795L162.753 98.4097L162.5 102.195L164.41 103.19L165.365 104.332L166.197 104.226L167.095 104.862L167.234 105.89L167.748 105.8L168.45 106.632L169.535 106.803L169.453 109.528L172.163 112.375L172.636 113.835L173.444 114.071L173.615 116.037L173.623 116.706L173.101 117.106L172.122 119.602L170.922 121.486L169.755 122.278L168.352 121.813L167.364 122.62L166.475 126.511L164.141 128.404L164.541 130.149L164.394 131.226L162.664 130.427L161.782 130.639L160.558 130.345L158.91 129.497L157.555 130.883L155.947 134.065L154.813 134.823L154.168 135.924L154.274 137.319L153.891 138.266L152.903 138.372L152.022 139.147L148.921 139.179L146.432 138.51L145.053 138.567L144.645 141.545L143.053 141.626L140.687 143.837L138.353 144.93L135.709 147.614L134.109 148.527L133.742 149.8L132.624 148.764L132.363 147.703L132.142 148.715L131.424 149.147L128.837 148.364L128.299 147.614L127.866 145.476L126.601 144.114L124.969 141.349L124.014 140.59L121.452 140.623L121.158 140.207L121.183 139.35L121.868 138.567L120.53 137.466L122.505 135.557L122.758 134.024L121.819 132.629L120.644 129.333L119.608 128.779L118.718 129.007L117.412 128.306L116.254 128.942L114.899 127.629L113.781 124.105L110.884 121.462L109.692 121.878L108.117 120.972L104.061 121.062L103.082 119.879L101.997 119.985L100.83 121.184L101.246 124.023L101.874 124.602L102.568 127.049L103.164 127.523L103.205 129.594L102.935 130.541L101.997 131.381L101.336 131.25L100.903 132.025L99.6954 132.458L98.0878 132.988L96.7739 131.83L93.8687 131.617L91.1756 130.622L90.7268 130.875L89.7965 129.611L89.3558 130.467L89.0946 130.443L89.1762 129.652L88.9641 130.41L88.5887 130.386L87.9929 129.203L88.1562 127.955L87.7889 127.849L86.4506 127.718L86.271 129.586L85.2509 129.505L84.7613 129.888L84.4349 129.431L82.9659 129.676L79.3589 127.939L77.6288 125.304L75.7111 123.803L75.0582 124.692L74.4298 124.562L73.2302 125.695L72.8548 125.565L71.1737 126.617L71.2716 127.335L69.77 127.221L69.3049 126.862L69.2886 126.323L68.652 126.348L68.3582 127.523L69.1417 128.877L68.9377 129.023L65.2408 129.758L63.674 129.056L62.5478 130.41L61.7644 130.728L61.5359 131.658L60.63 131.267L60.0261 131.936L57.1781 126.772L56.4436 123.942L55.6357 123.811L55.6683 122.449L55.146 121.511L55.9539 119.129L57.1862 118.697L57.4637 117.302L57.1373 116.127L55.9947 115.744L54.9747 113.77L53.9872 113.704L53.4568 112.938L52.9508 113.297L51.2697 112.35L51.4329 111.812L51.0004 110.727L48.0707 113.019L47.6055 112.717L46.7242 113.142L45.3613 112.048L45.4674 111.241L48.593 109.618L49.2377 106.852L50.9841 105.123L51.9307 105.262L52.4856 103.638L53.2609 103.859L54.1096 102.725L56.3375 103.467L59.5365 106.681L60.3444 106.983L61.5359 106.322L62.4009 106.567L63.6577 105.564L66.1304 105.4L66.824 103.581L68.5215 103.32L68.9132 102.276L69.7456 101.55L72.6671 101.534L74.3482 100.628L75.9396 100.8L77.2289 99.0949L78.8285 97.8958L80.5993 94.9593L82.5497 93.6133L82.8272 92.3327L88.5234 91.9493L90.2127 92.5611L91.5673 91.8677L92.8975 87.8299L93.1424 84.8607L93.9992 83.1314L94.0972 80.9861L95.1662 79.8441L96.0313 79.2404L99.5567 79.3791L100.699 78.7592L103.89 79.2812L107.872 77.3317L110.378 74.4032L110.304 73.2531L111.912 69.8026L111.504 66.9639L111.839 66.4582L112.385 66.4092L111.422 64.3781L112.018 63.2769V62.1104L113.601 60.7645L113.169 59.6633V57.2896L114.483 55.65L114.785 53.8636L115.274 53.3904L115.331 51.8161L114.483 51.4001L114.572 49.3934L117.943 46.1306L117.918 44.0668L121.248 43.0717L124.92 42.7535L127.891 41.6197L128.087 41.1547L130.217 40.1106Z" fill="#CBD5E1"/>
<path d="M229.537 0.246582L230.377 1.43753L229.904 2.58768L230.589 3.55838L232.417 4.56171L233.544 4.63513L234.139 5.54873L235.143 5.8587L235.094 10.4349L237.028 14.3258L237.216 16.8056L238.261 18.0699L238.522 19.2446L239.697 20.6068L239.901 21.4959L241.125 21.2104L242.447 22.483L244.92 21.1697L244.65 23.1926L245.63 24.1225L243.989 27.728L246.56 27.7688L248.282 28.5437L248.878 28.4621L251.62 30.6401L252.681 29.9304L253.717 28.1277L254.411 27.6056L255.937 27.051L257.969 27.5567L258.124 31.5537L259.07 33.2259L258.948 34.8329L258.393 36.1951L258.744 37.6634L259.536 38.6912L258.377 42.0846L258.573 42.5658L259.707 42.8595L260.751 45.1843L258.058 46.6281L257.805 48.6837L255.863 50.723L256.075 51.9955L255.39 53.529L256.043 54.5079L256.883 54.7118L257.577 55.4949L258.475 55.4704L259.315 54.6303L260.376 55.5846L261.192 55.1605L262.106 55.8294L264.979 55.8375L265.485 57.5097L268.121 61.5638L267.811 62.5427L268.039 62.9832L267.272 64.8675L267.794 65.0551L269.647 64.2883L269.891 65.2427L271.279 65.1448L272.633 67.282L273.115 67.0291L273.237 66.091L274.045 67.6654L275.008 67.4696L277.163 67.8448L278.256 67.1678L279.407 67.8693L279.293 69.6883L278.109 72.8696L278.256 75.0884L277.375 77.3316L277.383 79.844L274.714 81.0105L273.205 80.4966L272.935 81.2144L275.914 83.3434L276.853 85.5866L278.036 86.3697L277.612 87.4709L278.925 91.2069L280.403 91.3293L280.745 91.6637L278.876 93.287L276.2 93.809L275.849 94.6982L274.29 93.083L272.217 94.2495L265.599 93.9477L261.706 94.4861L260.784 94.1272L260.286 93.4338L258.36 93.3604L256.483 94.5432L255.488 94.5758L254.003 95.4812L252.762 94.013L248.861 95.4405H246.38L243.834 93.3767L242.627 92.928L240.382 91.3048L239.738 90.4564L237.91 89.7712L236.637 89.7305L235.486 89.0534L234.254 89.9017L231.732 89.5673L228.761 91.158L227.415 91.5005H221.915L217.777 96.2725L216.08 99.9514L210.432 100.849L210.261 100.351L211.575 99.2417L211.518 97.4226L211.004 96.142L209.339 95.3752L206.344 96.2154L204.736 97.7734L203.586 97.3492L202.5 97.9447L201.603 97.5939L197.587 98.222L195.866 97.8958L195.302 98.1568L194.225 98.0915L193.515 97.3655L193.026 97.3411L191.516 98.01L190.871 100.351L189.77 101.746L188.847 101.844L188.292 101.509L187.917 101.909L188.603 104.927L187.868 106.249L187.974 107.423L188.39 108.198L190.39 109.928L190.006 112.889L188.676 113.957L187.966 115.287L185.648 115.589L183.682 115.058L182.498 115.956L181.682 115.907L180.768 115.034L179.267 114.814L179.324 113.794L178.744 113.745L178.655 112.522L178.002 112.367L176.402 113.207L175.317 114.691L173.979 115.303L173.619 116.037L173.448 114.071L172.64 113.835L172.167 112.375L169.457 109.528L169.539 106.803L168.454 106.632L167.752 105.8L167.238 105.89L167.099 104.862L166.201 104.226L165.369 104.332L164.414 103.19L162.505 102.195L162.758 98.4097L162.333 97.8794L163.476 95.571L162.088 93.6051L162.97 92.1368L162.978 91.2803L163.467 91.4353L164.145 89.967L163.892 89.1758L162.211 87.5117L160.228 87.9685L156.506 86.8102L154.76 87.4954L153.324 87.5443L152.646 86.6634L152.81 85.7906L151.683 86.1576L150.729 87.6259L150.476 88.7353L148.697 89.1595L147.489 90.2688L143.229 89.8773L142.078 88.6211V87.6912L142.592 87.7891L144.143 86.8836L145.139 86.7776L146.061 85.3093L146.101 84.4283L147.929 83.2455L150.565 82.854L151.12 82.4543L152.695 80.5618L152.965 79.4851L153.952 78.9222L154.083 76.7851L153.675 75.7654L154.287 74.7866L154.017 74.0443L154.311 73.3183L153.03 71.2871L150.296 70.3572L151.063 69.1908L152.491 68.269L153.185 66.7681L152.01 65.6506L151.79 63.3829L149.137 62.4774L149.056 61.1397L148.036 60.9765L146.379 60.0548L143.604 57.42L142.511 56.955L142.258 55.0952L140.773 54.0185L140.683 53.0478L140.12 52.2484L140.397 51.4816L140.185 50.5109L138.912 49.165L138.993 47.7538L137.663 46.4079L135.966 43.2184L135.207 42.8024L134.53 41.7909L134.587 40.0208L132.848 39.9311L130.857 40.4368L130.221 40.1105L133.673 39.0583L134.774 38.0631L135.786 36.1299L136.978 35.4773L136.562 34.7595L137.827 33.4543L138.014 32.7854L137.076 29.2371L137.647 28.7721L138.969 29.7428L139.956 29.9386L140.805 29.702L141.393 28.6579L143.245 27.6709L143.335 26.3821L143.874 25.289L144.616 24.8322L144.624 24.0736L145.579 23.9349L145.848 23.0458L147.162 22.3361L147.383 21.3328L148.052 21.1615L149.374 19.889L148.378 17.4337L148.427 16.6424L149.292 16.1367L149.415 15.3699L151.259 14.4237L153.756 14.1545L154.23 14.4319L154.254 15.7696L155.674 16.0143L156.735 15.6554L157.29 15.9083L158.041 15.1578L161.019 14.4482L161.917 15.427L163.753 15.2394L166.454 16.8708H167.662L170.094 14.5297L171.514 14.2198L172.232 13.4204L174.484 12.776L176.296 13.1512L177.382 12.8331L177.92 13.3388L180.042 13.5672L183.788 12.9391L184.4 13.714L185.754 14.3992L185.795 15.0926L186.424 14.9458L186.562 15.2394L185.673 17.6866L186.236 18.5104L185.852 18.9672L185.51 21.5204L186.652 21.8956L187.232 23.7799L187.933 24.6283L187.607 25.9253L186.252 27.1652L186.579 28.7313L187.183 29.4655L188.807 29.0087L189.843 29.4899L192.014 29.4084L193.026 28.5111L192.879 28.1114L193.523 26.9286L195.107 27.1407L195.417 26.5289L196.869 26.7002L198.526 28.299L199.562 28.4377L200.378 28.1522L201.015 27.3446L202.1 28.193L204.255 26.9939L205.569 27.418L206.213 26.7573L205.756 26.1618L205.83 25.0443L205.348 24.5875V23.9594L206.956 21.9609L208.098 22.2546L208.67 21.4144L208.915 20.2479L208.164 18.9101L209.249 17.2134L208.866 16.5446L209.51 15.9899L209.478 13.8853L211.681 11.8787L211.91 11.1853L212.889 11.2098L213.721 10.753L214.929 11.0385L215.99 10.5735L216.643 10.8264L216.781 11.479L220.446 10.6388L220.927 9.76597L220.772 8.36294L221.523 7.63695L221.376 6.40523L223.922 5.459L224.551 4.56987L224.648 3.31367L225.154 2.88134L227.594 2.24508L227.497 1.10308L227.88 0.377096L228.631 0.589182L229.537 0.246582Z" fill="#CBD5E1"/>
</g>
<g clip-path="url(#clip1_1484_15999)">
<path d="M200.555 21.0891C199.33 15.6991 194.629 13.2725 190.499 13.2725C190.499 13.2725 190.499 13.2725 190.487 13.2725C186.369 13.2725 181.655 15.6875 180.43 21.0775C179.065 27.0975 182.752 32.1958 186.089 35.4041C187.325 36.5941 188.912 37.1891 190.499 37.1891C192.085 37.1891 193.672 36.5941 194.897 35.4041C198.234 32.1958 201.92 27.1091 200.555 21.0891ZM190.499 26.9341C188.469 26.9341 186.824 25.2891 186.824 23.2591C186.824 21.2291 188.469 19.5841 190.499 19.5841C192.529 19.5841 194.174 21.2291 194.174 23.2591C194.174 25.2891 192.529 26.9341 190.499 26.9341Z" fill="#0F172A"/>
</g>
<path d="M174.355 56.231V55.3361L178.69 49.7679V49.6883H174.494V48.5946H180.202V49.5293L175.986 55.0577V55.1372H180.341V56.231H174.355ZM176.244 45.5321L177.278 46.9241L178.312 45.5321H179.426V45.6116L177.815 47.6798H176.741L175.131 45.6116V45.5321H176.244ZM182.148 56.231V48.5946H183.321V56.231H182.148ZM182.745 47.3219C182.516 47.3219 182.319 47.244 182.153 47.0882C181.991 46.9324 181.909 46.7452 181.909 46.5264C181.909 46.3077 181.991 46.1204 182.153 45.9646C182.319 45.8088 182.516 45.731 182.745 45.731C182.973 45.731 183.169 45.8088 183.331 45.9646C183.497 46.1204 183.58 46.3077 183.58 46.5264C183.58 46.7452 183.497 46.9324 183.331 47.0882C183.169 47.244 182.973 47.3219 182.745 47.3219ZM186.644 46.0491V56.231H185.47V46.0491H186.644ZM188.793 56.231V48.5946H189.966V56.231H188.793ZM189.389 47.3219C189.161 47.3219 188.963 47.244 188.798 47.0882C188.635 46.9324 188.554 46.7452 188.554 46.5264C188.554 46.3077 188.635 46.1204 188.798 45.9646C188.963 45.8088 189.161 45.731 189.389 45.731C189.618 45.731 189.813 45.8088 189.976 45.9646C190.142 46.1204 190.224 46.3077 190.224 46.5264C190.224 46.7452 190.142 46.9324 189.976 47.0882C189.813 47.244 189.618 47.3219 189.389 47.3219ZM193.288 51.6372V56.231H192.115V48.5946H193.248V49.7878H193.348C193.527 49.4 193.799 49.0884 194.163 48.8531C194.528 48.6145 194.998 48.4952 195.575 48.4952C196.092 48.4952 196.545 48.6012 196.932 48.8133C197.32 49.0222 197.622 49.3403 197.837 49.7679C198.053 50.1921 198.16 50.7291 198.16 51.3787V56.231H196.987V51.4582C196.987 50.8583 196.831 50.391 196.52 50.0562C196.208 49.7182 195.781 49.5491 195.237 49.5491C194.863 49.5491 194.528 49.6303 194.233 49.7927C193.941 49.9552 193.711 50.1921 193.542 50.5037C193.373 50.8152 193.288 51.1931 193.288 51.6372ZM202.551 56.4099C202.068 56.4099 201.628 56.3188 201.234 56.1365C200.84 55.9509 200.526 55.6841 200.294 55.3361C200.062 54.9847 199.946 54.5605 199.946 54.0633C199.946 53.6258 200.033 53.2712 200.205 52.9994C200.377 52.7243 200.608 52.5089 200.896 52.3531C201.184 52.1973 201.502 52.0813 201.85 52.0051C202.202 51.9256 202.555 51.8626 202.909 51.8162C203.373 51.7565 203.75 51.7118 204.038 51.682C204.33 51.6488 204.542 51.5941 204.674 51.5179C204.81 51.4417 204.878 51.3091 204.878 51.1202V51.0804C204.878 50.5899 204.744 50.2087 204.475 49.9369C204.21 49.6651 203.808 49.5293 203.267 49.5293C202.707 49.5293 202.268 49.6519 201.95 49.8972C201.632 50.1424 201.408 50.4043 201.279 50.6827L200.165 50.2849C200.364 49.8209 200.629 49.4596 200.961 49.2011C201.295 48.9393 201.66 48.757 202.054 48.6543C202.452 48.5482 202.843 48.4952 203.228 48.4952C203.473 48.4952 203.755 48.525 204.073 48.5846C204.394 48.641 204.704 48.7587 205.002 48.9376C205.304 49.1166 205.554 49.3867 205.753 49.748C205.952 50.1093 206.051 50.5932 206.051 51.1997V56.231H204.878V55.1969H204.819C204.739 55.3626 204.606 55.5399 204.421 55.7288C204.235 55.9177 203.988 56.0785 203.68 56.2111C203.372 56.3436 202.996 56.4099 202.551 56.4099ZM202.73 55.356C203.194 55.356 203.586 55.2648 203.904 55.0825C204.225 54.9002 204.467 54.6649 204.63 54.3766C204.795 54.0882 204.878 53.7849 204.878 53.4668V52.3929C204.828 52.4525 204.719 52.5072 204.55 52.557C204.384 52.6034 204.192 52.6448 203.973 52.6812C203.758 52.7144 203.547 52.7442 203.342 52.7707C203.14 52.7939 202.976 52.8138 202.85 52.8304C202.545 52.8702 202.26 52.9348 201.995 53.0243C201.733 53.1105 201.521 53.2414 201.358 53.417C201.199 53.5894 201.12 53.8247 201.12 54.123C201.12 54.5307 201.27 54.8389 201.572 55.0477C201.877 55.2532 202.263 55.356 202.73 55.356Z" fill="#0F172A"/>
<g clip-path="url(#clip2_1484_15999)">
<path d="M122.555 68.0891C121.33 62.6991 116.629 60.2725 112.499 60.2725C112.499 60.2725 112.499 60.2725 112.487 60.2725C108.369 60.2725 103.655 62.6875 102.43 68.0775C101.065 74.0975 104.752 79.1958 108.089 82.4041C109.325 83.5941 110.912 84.1891 112.499 84.1891C114.085 84.1891 115.672 83.5941 116.897 82.4041C120.234 79.1958 123.92 74.1091 122.555 68.0891ZM112.499 73.9341C110.469 73.9341 108.824 72.2891 108.824 70.2591C108.824 68.2291 110.469 66.5841 112.499 66.5841C114.529 66.5841 116.174 68.2291 116.174 70.2591C116.174 72.2891 114.529 73.9341 112.499 73.9341Z" fill="#0F172A"/>
</g>
<path d="M88.6761 94.1429V93.0491H96.3125V94.1429H93.1108V103.231H91.8778V94.1429H88.6761ZM97.2633 103.231V95.5946H98.3968V96.748H98.4764C98.6156 96.3702 98.8675 96.0636 99.2321 95.8283C99.5967 95.5929 100.008 95.4753 100.465 95.4753C100.551 95.4753 100.659 95.4769 100.788 95.4802C100.917 95.4836 101.015 95.4885 101.081 95.4952V96.6883C101.042 96.6784 100.951 96.6635 100.808 96.6436C100.669 96.6204 100.521 96.6088 100.366 96.6088C99.9944 96.6088 99.6629 96.6867 99.3713 96.8425C99.0829 96.9949 98.8542 97.207 98.6852 97.4788C98.5195 97.7473 98.4366 98.0539 98.4366 98.3986V103.231H97.2633ZM105.442 103.39C104.706 103.39 104.071 103.228 103.537 102.903C103.007 102.575 102.598 102.117 102.309 101.531C102.024 100.941 101.882 100.255 101.882 99.4724C101.882 98.6902 102.024 98.0008 102.309 97.4043C102.598 96.8043 102.999 96.337 103.513 96.0023C104.03 95.6642 104.633 95.4952 105.322 95.4952C105.72 95.4952 106.113 95.5614 106.501 95.694C106.888 95.8266 107.241 96.042 107.559 96.3403C107.878 96.6353 108.131 97.0264 108.32 97.5136C108.509 98.0008 108.604 98.6007 108.604 99.3133V99.8105H102.717V98.7963H107.41C107.41 98.3654 107.324 97.981 107.152 97.6429C106.983 97.3048 106.741 97.038 106.426 96.8425C106.114 96.6469 105.747 96.5491 105.322 96.5491C104.855 96.5491 104.451 96.6651 104.109 96.8972C103.771 97.1258 103.511 97.4241 103.329 97.792C103.146 98.1599 103.055 98.5543 103.055 98.9753V99.6514C103.055 100.228 103.155 100.717 103.354 101.118C103.556 101.516 103.836 101.819 104.194 102.028C104.552 102.233 104.968 102.336 105.442 102.336C105.75 102.336 106.028 102.293 106.277 102.207C106.529 102.117 106.746 101.985 106.928 101.809C107.11 101.63 107.251 101.408 107.351 101.143L108.484 101.461C108.365 101.846 108.164 102.184 107.883 102.475C107.601 102.764 107.253 102.989 106.839 103.151C106.424 103.311 105.959 103.39 105.442 103.39ZM111.562 98.6372V103.231H110.388V95.5946H111.522V96.7878H111.621C111.8 96.4 112.072 96.0884 112.437 95.8531C112.801 95.6145 113.272 95.4952 113.849 95.4952C114.366 95.4952 114.818 95.6012 115.206 95.8133C115.594 96.0222 115.895 96.3403 116.111 96.7679C116.326 97.1921 116.434 97.7291 116.434 98.3787V103.231H115.26V98.4582C115.26 97.8583 115.105 97.391 114.793 97.0562C114.482 96.7182 114.054 96.5491 113.51 96.5491C113.136 96.5491 112.801 96.6303 112.506 96.7927C112.215 96.9552 111.984 97.1921 111.815 97.5037C111.646 97.8152 111.562 98.1931 111.562 98.6372ZM121.68 103.39C120.964 103.39 120.348 103.221 119.831 102.883C119.314 102.545 118.916 102.079 118.637 101.486C118.359 100.893 118.22 100.215 118.22 99.4525C118.22 98.677 118.362 97.9926 118.647 97.3993C118.936 96.8027 119.337 96.337 119.85 96.0023C120.368 95.6642 120.971 95.4952 121.66 95.4952C122.197 95.4952 122.681 95.5946 123.112 95.7935C123.543 95.9923 123.896 96.2707 124.171 96.6287C124.446 96.9866 124.617 97.4043 124.683 97.8815H123.51C123.42 97.5335 123.221 97.2253 122.913 96.9568C122.608 96.685 122.197 96.5491 121.68 96.5491C121.223 96.5491 120.822 96.6685 120.477 96.9071C120.136 97.1424 119.869 97.4755 119.676 97.9064C119.488 98.3339 119.393 98.8361 119.393 99.4128C119.393 100.003 119.486 100.516 119.672 100.954C119.86 101.391 120.126 101.731 120.467 101.973C120.812 102.215 121.216 102.336 121.68 102.336C121.985 102.336 122.262 102.283 122.51 102.177C122.759 102.071 122.969 101.918 123.142 101.72C123.314 101.521 123.437 101.282 123.51 101.004H124.683C124.617 101.454 124.453 101.86 124.191 102.222C123.932 102.58 123.589 102.865 123.162 103.077C122.737 103.286 122.243 103.39 121.68 103.39ZM121.103 94.5605L122.316 92.2537H123.689L122.137 94.5605H121.103ZM126.398 103.231V95.5946H127.571V103.231H126.398ZM126.458 94.5605L127.671 92.2537H129.043L127.492 94.5605H126.458ZM130.894 98.6372V103.231H129.72V95.5946H130.854V96.7878H130.953C131.132 96.4 131.404 96.0884 131.769 95.8531C132.133 95.6145 132.604 95.4952 133.181 95.4952C133.698 95.4952 134.15 95.6012 134.538 95.8133C134.926 96.0222 135.227 96.3403 135.443 96.7679C135.658 97.1921 135.766 97.7291 135.766 98.3787V103.231H134.593V98.4582C134.593 97.8583 134.437 97.391 134.125 97.0562C133.814 96.7182 133.386 96.5491 132.843 96.5491C132.468 96.5491 132.133 96.6303 131.838 96.7927C131.547 96.9552 131.316 97.1921 131.147 97.5037C130.978 97.8152 130.894 98.1931 130.894 98.6372Z" fill="#0F172A"/>
<g clip-path="url(#clip3_1484_15999)">
<path d="M227.555 120.089C226.33 114.699 221.629 112.272 217.499 112.272C217.499 112.272 217.499 112.272 217.487 112.272C213.369 112.272 208.655 114.687 207.43 120.077C206.065 126.097 209.752 131.196 213.089 134.404C214.325 135.594 215.912 136.189 217.499 136.189C219.085 136.189 220.672 135.594 221.897 134.404C225.234 131.196 228.92 126.109 227.555 120.089ZM217.499 125.934C215.469 125.934 213.824 124.289 213.824 122.259C213.824 120.229 215.469 118.584 217.499 118.584C219.529 118.584 221.174 120.229 221.174 122.259C221.174 124.289 219.529 125.934 217.499 125.934Z" fill="#0F172A"/>
</g>
<path d="M195.895 155.231V154.336L201.384 146.143H195.835V145.049H202.855V145.944L197.366 154.137H202.915V155.231H195.895ZM211.068 147.595L208.244 155.231H207.051L204.227 147.595H205.5L207.608 153.68H207.688L209.795 147.595H211.068ZM215.446 155.39C214.756 155.39 214.151 155.226 213.631 154.898C213.114 154.57 212.71 154.111 212.418 153.521C212.13 152.931 211.985 152.241 211.985 151.453C211.985 150.657 212.13 149.963 212.418 149.369C212.71 148.776 213.114 148.315 213.631 147.987C214.151 147.659 214.756 147.495 215.446 147.495C216.135 147.495 216.738 147.659 217.255 147.987C217.776 148.315 218.18 148.776 218.468 149.369C218.76 149.963 218.906 150.657 218.906 151.453C218.906 152.241 218.76 152.931 218.468 153.521C218.18 154.111 217.776 154.57 217.255 154.898C216.738 155.226 216.135 155.39 215.446 155.39ZM215.446 154.336C215.969 154.336 216.4 154.202 216.738 153.933C217.076 153.665 217.327 153.312 217.489 152.874C217.651 152.437 217.733 151.963 217.733 151.453C217.733 150.942 217.651 150.467 217.489 150.026C217.327 149.585 217.076 149.229 216.738 148.957C216.4 148.685 215.969 148.549 215.446 148.549C214.922 148.549 214.491 148.685 214.153 148.957C213.815 149.229 213.565 149.585 213.402 150.026C213.24 150.467 213.159 150.942 213.159 151.453C213.159 151.963 213.24 152.437 213.402 152.874C213.565 153.312 213.815 153.665 214.153 153.933C214.491 154.202 214.922 154.336 215.446 154.336ZM221.87 145.049V155.231H220.697V145.049H221.87ZM227.221 155.39C226.485 155.39 225.85 155.228 225.317 154.903C224.786 154.575 224.377 154.117 224.089 153.531C223.804 152.941 223.661 152.255 223.661 151.472C223.661 150.69 223.804 150.001 224.089 149.404C224.377 148.804 224.778 148.337 225.292 148.002C225.809 147.664 226.412 147.495 227.102 147.495C227.499 147.495 227.892 147.561 228.28 147.694C228.668 147.827 229.021 148.042 229.339 148.34C229.657 148.635 229.911 149.026 230.099 149.514C230.288 150.001 230.383 150.601 230.383 151.313V151.811H224.496V150.796H229.19C229.19 150.365 229.103 149.981 228.931 149.643C228.762 149.305 228.52 149.038 228.205 148.842C227.894 148.647 227.526 148.549 227.102 148.549C226.634 148.549 226.23 148.665 225.888 148.897C225.55 149.126 225.29 149.424 225.108 149.792C224.926 150.16 224.835 150.554 224.835 150.975V151.651C224.835 152.228 224.934 152.717 225.133 153.118C225.335 153.516 225.615 153.819 225.973 154.028C226.331 154.233 226.747 154.336 227.221 154.336C227.529 154.336 227.808 154.293 228.056 154.207C228.308 154.117 228.525 153.985 228.707 153.809C228.89 153.63 229.031 153.408 229.13 153.143L230.263 153.461C230.144 153.846 229.944 154.184 229.662 154.475C229.38 154.764 229.032 154.989 228.618 155.151C228.204 155.311 227.738 155.39 227.221 155.39ZM233.341 150.637V155.231H232.168V147.595H233.301V148.788H233.401C233.58 148.4 233.851 148.088 234.216 147.853C234.58 147.614 235.051 147.495 235.628 147.495C236.145 147.495 236.597 147.601 236.985 147.813C237.373 148.022 237.674 148.34 237.89 148.768C238.105 149.192 238.213 149.729 238.213 150.379V155.231H237.04V150.458C237.04 149.858 236.884 149.391 236.572 149.056C236.261 148.718 235.833 148.549 235.29 148.549C234.915 148.549 234.58 148.63 234.286 148.793C233.994 148.955 233.763 149.192 233.594 149.504C233.425 149.815 233.341 150.193 233.341 150.637Z" fill="#0F172A"/>
<g clip-path="url(#clip4_1484_15999)">
<path d="M372.555 90.0891C371.33 84.6991 366.629 82.2725 362.499 82.2725C362.499 82.2725 362.499 82.2725 362.487 82.2725C358.369 82.2725 353.655 84.6875 352.43 90.0775C351.065 96.0975 354.752 101.196 358.089 104.404C359.325 105.594 360.912 106.189 362.499 106.189C364.085 106.189 365.672 105.594 366.897 104.404C370.234 101.196 373.92 96.1091 372.555 90.0891ZM362.499 95.9341C360.469 95.9341 358.824 94.2891 358.824 92.2591C358.824 90.2291 360.469 88.5841 362.499 88.5841C364.529 88.5841 366.174 90.2291 366.174 92.2591C366.174 94.2891 364.529 95.9341 362.499 95.9341Z" fill="#0F172A"/>
</g>
<path d="M341.733 125.231V115.049H342.966V120.1H343.085L347.659 115.049H349.27L344.994 119.643L349.27 125.231H347.778L344.239 120.498L342.966 121.93V125.231H341.733ZM353.248 125.39C352.559 125.39 351.954 125.226 351.434 124.898C350.917 124.57 350.512 124.111 350.221 123.521C349.932 122.931 349.788 122.241 349.788 121.453C349.788 120.657 349.932 119.963 350.221 119.369C350.512 118.776 350.917 118.315 351.434 117.987C351.954 117.659 352.559 117.495 353.248 117.495C353.938 117.495 354.541 117.659 355.058 117.987C355.578 118.315 355.983 118.776 356.271 119.369C356.563 119.963 356.709 120.657 356.709 121.453C356.709 122.241 356.563 122.931 356.271 123.521C355.983 124.111 355.578 124.57 355.058 124.898C354.541 125.226 353.938 125.39 353.248 125.39ZM353.248 124.336C353.772 124.336 354.203 124.202 354.541 123.933C354.879 123.665 355.129 123.312 355.292 122.874C355.454 122.437 355.535 121.963 355.535 121.453C355.535 120.942 355.454 120.467 355.292 120.026C355.129 119.585 354.879 119.229 354.541 118.957C354.203 118.685 353.772 118.549 353.248 118.549C352.725 118.549 352.294 118.685 351.956 118.957C351.618 119.229 351.367 119.585 351.205 120.026C351.043 120.467 350.961 120.942 350.961 121.453C350.961 121.963 351.043 122.437 351.205 122.874C351.367 123.312 351.618 123.665 351.956 123.933C352.294 124.202 352.725 124.336 353.248 124.336ZM363.909 119.305L362.855 119.603C362.788 119.427 362.691 119.257 362.561 119.091C362.435 118.922 362.263 118.783 362.044 118.673C361.826 118.564 361.546 118.509 361.204 118.509C360.737 118.509 360.347 118.617 360.036 118.833C359.728 119.045 359.574 119.315 359.574 119.643C359.574 119.935 359.68 120.165 359.892 120.334C360.104 120.503 360.435 120.644 360.886 120.757L362.02 121.035C362.702 121.201 363.211 121.454 363.546 121.796C363.881 122.134 364.048 122.569 364.048 123.103C364.048 123.541 363.922 123.932 363.67 124.276C363.422 124.621 363.074 124.893 362.626 125.092C362.179 125.291 361.658 125.39 361.065 125.39C360.286 125.39 359.641 125.221 359.131 124.883C358.621 124.545 358.297 124.051 358.162 123.401L359.275 123.123C359.381 123.534 359.582 123.842 359.877 124.048C360.175 124.253 360.565 124.356 361.045 124.356C361.592 124.356 362.026 124.24 362.348 124.008C362.672 123.773 362.835 123.491 362.835 123.163C362.835 122.898 362.742 122.676 362.556 122.497C362.371 122.314 362.086 122.178 361.701 122.089L360.429 121.791C359.729 121.625 359.216 121.368 358.887 121.02C358.563 120.669 358.4 120.23 358.4 119.703C358.4 119.272 358.521 118.891 358.763 118.559C359.008 118.228 359.342 117.967 359.762 117.779C360.187 117.59 360.667 117.495 361.204 117.495C361.96 117.495 362.553 117.661 362.984 117.992C363.418 118.324 363.726 118.761 363.909 119.305ZM360.17 114.532L361.204 115.924L362.238 114.532H363.352V114.612L361.741 116.68H360.667L359.056 114.612V114.532H360.17ZM365.814 125.231V117.595H366.987V125.231H365.814ZM365.874 116.561L367.087 114.254H368.459L366.908 116.561H365.874ZM372.239 125.39C371.523 125.39 370.906 125.221 370.389 124.883C369.872 124.545 369.474 124.079 369.196 123.486C368.918 122.893 368.778 122.215 368.778 121.453C368.778 120.677 368.921 119.993 369.206 119.399C369.494 118.803 369.895 118.337 370.409 118.002C370.926 117.664 371.529 117.495 372.219 117.495C372.756 117.495 373.24 117.595 373.67 117.793C374.101 117.992 374.454 118.271 374.729 118.629C375.004 118.987 375.175 119.404 375.241 119.882H374.068C373.979 119.534 373.78 119.225 373.472 118.957C373.167 118.685 372.756 118.549 372.239 118.549C371.781 118.549 371.38 118.668 371.036 118.907C370.694 119.142 370.427 119.476 370.235 119.906C370.046 120.334 369.952 120.836 369.952 121.413C369.952 122.003 370.045 122.516 370.23 122.954C370.419 123.391 370.684 123.731 371.026 123.973C371.37 124.215 371.775 124.336 372.239 124.336C372.544 124.336 372.82 124.283 373.069 124.177C373.317 124.071 373.528 123.918 373.7 123.72C373.873 123.521 373.995 123.282 374.068 123.004H375.241C375.175 123.454 375.011 123.86 374.749 124.222C374.491 124.58 374.148 124.865 373.72 125.077C373.296 125.286 372.802 125.39 372.239 125.39ZM380.158 125.39C379.423 125.39 378.788 125.228 378.254 124.903C377.724 124.575 377.315 124.117 377.026 123.531C376.741 122.941 376.599 122.255 376.599 121.472C376.599 120.69 376.741 120.001 377.026 119.404C377.315 118.804 377.716 118.337 378.229 118.002C378.746 117.664 379.35 117.495 380.039 117.495C380.437 117.495 380.83 117.561 381.217 117.694C381.605 117.827 381.958 118.042 382.276 118.34C382.594 118.635 382.848 119.026 383.037 119.514C383.226 120.001 383.32 120.601 383.32 121.313V121.811H377.434V120.796H382.127C382.127 120.365 382.041 119.981 381.869 119.643C381.7 119.305 381.458 119.038 381.143 118.842C380.831 118.647 380.463 118.549 380.039 118.549C379.572 118.549 379.167 118.665 378.826 118.897C378.488 119.126 378.228 119.424 378.045 119.792C377.863 120.16 377.772 120.554 377.772 120.975V121.651C377.772 122.228 377.871 122.717 378.07 123.118C378.272 123.516 378.553 123.819 378.911 124.028C379.268 124.233 379.684 124.336 380.158 124.336C380.467 124.336 380.745 124.293 380.994 124.207C381.246 124.117 381.463 123.985 381.645 123.809C381.827 123.63 381.968 123.408 382.067 123.143L383.201 123.461C383.082 123.846 382.881 124.184 382.599 124.475C382.318 124.764 381.97 124.989 381.555 125.151C381.141 125.311 380.675 125.39 380.158 125.39Z" fill="#0F172A"/>
<g clip-path="url(#clip5_1484_15999)">
<path d="M442.555 83.0891C441.33 77.6991 436.629 75.2725 432.499 75.2725C432.499 75.2725 432.499 75.2725 432.487 75.2725C428.369 75.2725 423.655 77.6875 422.43 83.0775C421.065 89.0975 424.752 94.1958 428.089 97.4041C429.325 98.5941 430.912 99.1891 432.499 99.1891C434.085 99.1891 435.672 98.5941 436.897 97.4041C440.234 94.1958 443.92 89.1091 442.555 83.0891ZM432.499 88.9341C430.469 88.9341 428.824 87.2891 428.824 85.2591C428.824 83.2291 430.469 81.5841 432.499 81.5841C434.529 81.5841 436.174 83.2291 436.174 85.2591C436.174 87.2891 434.529 88.9341 432.499 88.9341Z" fill="#0F172A"/>
</g>
<path d="M396.233 108.049H397.705L401.165 116.501H401.284L404.744 108.049H406.216V118.231H405.062V110.495H404.963L401.781 118.231H400.668L397.486 110.495H397.386V118.231H396.233V108.049ZM408.529 118.231V110.595H409.702V118.231H408.529ZM409.126 109.322C408.897 109.322 408.7 109.244 408.534 109.088C408.372 108.932 408.29 108.745 408.29 108.526C408.29 108.308 408.372 108.12 408.534 107.965C408.7 107.809 408.897 107.731 409.126 107.731C409.354 107.731 409.55 107.809 409.712 107.965C409.878 108.12 409.961 108.308 409.961 108.526C409.961 108.745 409.878 108.932 409.712 109.088C409.55 109.244 409.354 109.322 409.126 109.322ZM414.953 118.39C414.238 118.39 413.621 118.221 413.104 117.883C412.587 117.545 412.189 117.079 411.911 116.486C411.632 115.893 411.493 115.215 411.493 114.453C411.493 113.677 411.636 112.993 411.921 112.399C412.209 111.803 412.61 111.337 413.124 111.002C413.641 110.664 414.244 110.495 414.934 110.495C415.471 110.495 415.954 110.595 416.385 110.793C416.816 110.992 417.169 111.271 417.444 111.629C417.719 111.987 417.89 112.404 417.956 112.882H416.783C416.694 112.534 416.495 112.225 416.186 111.957C415.882 111.685 415.471 111.549 414.953 111.549C414.496 111.549 414.095 111.668 413.75 111.907C413.409 112.142 413.142 112.476 412.95 112.906C412.761 113.334 412.667 113.836 412.667 114.413C412.667 115.003 412.759 115.516 412.945 115.954C413.134 116.391 413.399 116.731 413.74 116.973C414.085 117.215 414.489 117.336 414.953 117.336C415.258 117.336 415.535 117.283 415.784 117.177C416.032 117.071 416.243 116.918 416.415 116.72C416.587 116.521 416.71 116.282 416.783 116.004H417.956C417.89 116.454 417.726 116.86 417.464 117.222C417.206 117.58 416.863 117.865 416.435 118.077C416.011 118.286 415.517 118.39 414.953 118.39ZM420.845 113.637V118.231H419.672V108.049H420.845V111.788H420.944C421.123 111.393 421.392 111.08 421.75 110.848C422.111 110.613 422.592 110.495 423.191 110.495C423.712 110.495 424.167 110.6 424.559 110.808C424.95 111.014 425.253 111.33 425.468 111.758C425.687 112.182 425.797 112.722 425.797 113.379V118.231H424.623V113.458C424.623 112.852 424.466 112.383 424.151 112.051C423.839 111.717 423.407 111.549 422.853 111.549C422.469 111.549 422.124 111.63 421.819 111.793C421.518 111.955 421.279 112.192 421.103 112.504C420.931 112.815 420.845 113.193 420.845 113.637ZM430.19 118.41C429.706 118.41 429.267 118.319 428.873 118.136C428.478 117.951 428.165 117.684 427.933 117.336C427.701 116.985 427.585 116.561 427.585 116.063C427.585 115.626 427.671 115.271 427.844 114.999C428.016 114.724 428.246 114.509 428.535 114.353C428.823 114.197 429.141 114.081 429.489 114.005C429.84 113.926 430.193 113.863 430.548 113.816C431.012 113.757 431.388 113.712 431.677 113.682C431.968 113.649 432.18 113.594 432.313 113.518C432.449 113.442 432.517 113.309 432.517 113.12V113.08C432.517 112.59 432.383 112.209 432.114 111.937C431.849 111.665 431.446 111.529 430.906 111.529C430.346 111.529 429.907 111.652 429.589 111.897C429.27 112.142 429.047 112.404 428.917 112.683L427.804 112.285C428.003 111.821 428.268 111.46 428.599 111.201C428.934 110.939 429.299 110.757 429.693 110.654C430.091 110.548 430.482 110.495 430.866 110.495C431.112 110.495 431.393 110.525 431.711 110.585C432.033 110.641 432.343 110.759 432.641 110.938C432.943 111.117 433.193 111.387 433.392 111.748C433.591 112.109 433.69 112.593 433.69 113.2V118.231H432.517V117.197H432.457C432.378 117.363 432.245 117.54 432.059 117.729C431.874 117.918 431.627 118.078 431.319 118.211C431.01 118.344 430.634 118.41 430.19 118.41ZM430.369 117.356C430.833 117.356 431.224 117.265 431.542 117.083C431.864 116.9 432.106 116.665 432.268 116.377C432.434 116.088 432.517 115.785 432.517 115.467V114.393C432.467 114.453 432.358 114.507 432.189 114.557C432.023 114.603 431.831 114.645 431.612 114.681C431.397 114.714 431.186 114.744 430.981 114.771C430.778 114.794 430.614 114.814 430.488 114.83C430.184 114.87 429.898 114.935 429.633 115.024C429.372 115.11 429.159 115.241 428.997 115.417C428.838 115.589 428.758 115.825 428.758 116.123C428.758 116.531 428.909 116.839 429.211 117.048C429.516 117.253 429.902 117.356 430.369 117.356ZM437.005 108.049V118.231H435.832V108.049H437.005ZM442.256 118.39C441.567 118.39 440.962 118.226 440.442 117.898C439.925 117.57 439.52 117.111 439.229 116.521C438.94 115.931 438.796 115.241 438.796 114.453C438.796 113.657 438.94 112.963 439.229 112.369C439.52 111.776 439.925 111.315 440.442 110.987C440.962 110.659 441.567 110.495 442.256 110.495C442.946 110.495 443.549 110.659 444.066 110.987C444.586 111.315 444.991 111.776 445.279 112.369C445.571 112.963 445.716 113.657 445.716 114.453C445.716 115.241 445.571 115.931 445.279 116.521C444.991 117.111 444.586 117.57 444.066 117.898C443.549 118.226 442.946 118.39 442.256 118.39ZM442.256 117.336C442.78 117.336 443.211 117.202 443.549 116.933C443.887 116.665 444.137 116.312 444.3 115.874C444.462 115.437 444.543 114.963 444.543 114.453C444.543 113.942 444.462 113.467 444.3 113.026C444.137 112.585 443.887 112.229 443.549 111.957C443.211 111.685 442.78 111.549 442.256 111.549C441.733 111.549 441.302 111.685 440.964 111.957C440.626 112.229 440.375 112.585 440.213 113.026C440.05 113.467 439.969 113.942 439.969 114.453C439.969 114.963 440.05 115.437 440.213 115.874C440.375 116.312 440.626 116.665 440.964 116.933C441.302 117.202 441.733 117.336 442.256 117.336ZM453.478 110.595L450.654 118.231H449.461L446.637 110.595H447.91L450.018 116.68H450.098L452.206 110.595H453.478ZM457.856 118.39C457.14 118.39 456.523 118.221 456.006 117.883C455.489 117.545 455.092 117.079 454.813 116.486C454.535 115.893 454.396 115.215 454.396 114.453C454.396 113.677 454.538 112.993 454.823 112.399C455.112 111.803 455.513 111.337 456.026 111.002C456.543 110.664 457.147 110.495 457.836 110.495C458.373 110.495 458.857 110.595 459.288 110.793C459.719 110.992 460.071 111.271 460.347 111.629C460.622 111.987 460.792 112.404 460.859 112.882H459.685C459.596 112.534 459.397 112.225 459.089 111.957C458.784 111.685 458.373 111.549 457.856 111.549C457.398 111.549 456.997 111.668 456.653 111.907C456.311 112.142 456.045 112.476 455.852 112.906C455.663 113.334 455.569 113.836 455.569 114.413C455.569 115.003 455.662 115.516 455.847 115.954C456.036 116.391 456.301 116.731 456.643 116.973C456.987 117.215 457.392 117.336 457.856 117.336C458.161 117.336 458.438 117.283 458.686 117.177C458.935 117.071 459.145 116.918 459.317 116.72C459.49 116.521 459.612 116.282 459.685 116.004H460.859C460.792 116.454 460.628 116.86 460.366 117.222C460.108 117.58 459.765 117.865 459.337 118.077C458.913 118.286 458.419 118.39 457.856 118.39ZM465.776 118.39C465.04 118.39 464.405 118.228 463.871 117.903C463.341 117.575 462.932 117.117 462.643 116.531C462.358 115.941 462.216 115.255 462.216 114.472C462.216 113.69 462.358 113.001 462.643 112.404C462.932 111.804 463.333 111.337 463.847 111.002C464.364 110.664 464.967 110.495 465.656 110.495C466.054 110.495 466.447 110.561 466.835 110.694C467.222 110.827 467.575 111.042 467.893 111.34C468.212 111.635 468.465 112.026 468.654 112.514C468.843 113.001 468.938 113.601 468.938 114.313V114.811H463.051V113.796H467.744C467.744 113.365 467.658 112.981 467.486 112.643C467.317 112.305 467.075 112.038 466.76 111.842C466.448 111.647 466.08 111.549 465.656 111.549C465.189 111.549 464.785 111.665 464.443 111.897C464.105 112.126 463.845 112.424 463.663 112.792C463.48 113.16 463.389 113.554 463.389 113.975V114.651C463.389 115.228 463.489 115.717 463.688 116.118C463.89 116.516 464.17 116.819 464.528 117.028C464.886 117.233 465.302 117.336 465.776 117.336C466.084 117.336 466.362 117.293 466.611 117.207C466.863 117.117 467.08 116.985 467.262 116.809C467.444 116.63 467.585 116.408 467.685 116.143L468.818 116.461C468.699 116.846 468.498 117.184 468.217 117.475C467.935 117.764 467.587 117.989 467.173 118.151C466.758 118.311 466.293 118.39 465.776 118.39Z" fill="#0F172A"/>
<g clip-path="url(#clip6_1484_15999)">
<path d="M170.555 167.089C169.33 161.699 164.629 159.272 160.499 159.272C160.499 159.272 160.499 159.272 160.487 159.272C156.369 159.272 151.655 161.687 150.43 167.077C149.065 173.097 152.752 178.196 156.089 181.404C157.325 182.594 158.912 183.189 160.499 183.189C162.085 183.189 163.672 182.594 164.897 181.404C168.234 178.196 171.92 173.109 170.555 167.089ZM160.499 172.934C158.469 172.934 156.824 171.289 156.824 169.259C156.824 167.229 158.469 165.584 160.499 165.584C162.529 165.584 164.174 167.229 164.174 169.259C164.174 171.289 162.529 172.934 160.499 172.934Z" fill="#F1555D"/>
</g>
<path d="M153.307 192.049V202.231H152.114L146.565 194.237H146.466V202.231H145.233V192.049H146.426L151.994 200.063H152.094V192.049H153.307ZM155.615 202.231V194.595H156.788V202.231H155.615ZM156.211 193.322C155.983 193.322 155.786 193.244 155.62 193.088C155.457 192.932 155.376 192.745 155.376 192.526C155.376 192.308 155.457 192.12 155.62 191.965C155.786 191.809 155.983 191.731 156.211 191.731C156.44 191.731 156.636 191.809 156.798 191.965C156.964 192.12 157.047 192.308 157.047 192.526C157.047 192.745 156.964 192.932 156.798 193.088C156.636 193.244 156.44 193.322 156.211 193.322ZM162.258 194.595V195.589H158.301V194.595H162.258ZM159.454 192.765H160.627V200.043C160.627 200.375 160.676 200.623 160.772 200.789C160.871 200.952 160.997 201.061 161.15 201.117C161.305 201.17 161.469 201.197 161.642 201.197C161.771 201.197 161.877 201.19 161.96 201.177C162.043 201.16 162.109 201.147 162.159 201.137L162.397 202.191C162.318 202.221 162.207 202.251 162.064 202.281C161.922 202.314 161.741 202.33 161.522 202.33C161.191 202.33 160.866 202.259 160.548 202.117C160.233 201.974 159.971 201.757 159.762 201.465C159.557 201.174 159.454 200.806 159.454 200.362V192.765ZM164.023 202.231V194.595H165.157V195.748H165.236C165.375 195.37 165.627 195.064 165.992 194.828C166.356 194.593 166.767 194.475 167.225 194.475C167.311 194.475 167.419 194.477 167.548 194.48C167.677 194.484 167.775 194.489 167.841 194.495V195.688C167.801 195.678 167.71 195.663 167.568 195.644C167.429 195.62 167.281 195.609 167.125 195.609C166.754 195.609 166.423 195.687 166.131 195.842C165.843 195.995 165.614 196.207 165.445 196.479C165.279 196.747 165.196 197.054 165.196 197.399V202.231H164.023ZM171.479 202.41C170.995 202.41 170.556 202.319 170.162 202.136C169.767 201.951 169.454 201.684 169.222 201.336C168.99 200.985 168.874 200.561 168.874 200.063C168.874 199.626 168.96 199.271 169.133 198.999C169.305 198.724 169.535 198.509 169.824 198.353C170.112 198.197 170.43 198.081 170.778 198.005C171.13 197.926 171.483 197.863 171.837 197.816C172.301 197.757 172.677 197.712 172.966 197.682C173.257 197.649 173.47 197.594 173.602 197.518C173.738 197.442 173.806 197.309 173.806 197.12V197.08C173.806 196.59 173.672 196.209 173.403 195.937C173.138 195.665 172.735 195.529 172.195 195.529C171.635 195.529 171.196 195.652 170.878 195.897C170.559 196.142 170.336 196.404 170.206 196.683L169.093 196.285C169.292 195.821 169.557 195.46 169.888 195.201C170.223 194.939 170.588 194.757 170.982 194.654C171.38 194.548 171.771 194.495 172.155 194.495C172.401 194.495 172.682 194.525 173.001 194.585C173.322 194.641 173.632 194.759 173.93 194.938C174.232 195.117 174.482 195.387 174.681 195.748C174.88 196.109 174.979 196.593 174.979 197.2V202.231H173.806V201.197H173.746C173.667 201.363 173.534 201.54 173.349 201.729C173.163 201.918 172.916 202.078 172.608 202.211C172.3 202.344 171.923 202.41 171.479 202.41ZM171.658 201.356C172.122 201.356 172.513 201.265 172.831 201.083C173.153 200.9 173.395 200.665 173.557 200.377C173.723 200.088 173.806 199.785 173.806 199.467V198.393C173.756 198.453 173.647 198.507 173.478 198.557C173.312 198.603 173.12 198.645 172.901 198.681C172.686 198.714 172.475 198.744 172.27 198.771C172.068 198.794 171.903 198.814 171.778 198.83C171.473 198.87 171.188 198.935 170.922 199.024C170.661 199.11 170.448 199.241 170.286 199.417C170.127 199.589 170.047 199.825 170.047 200.123C170.047 200.531 170.198 200.839 170.5 201.048C170.805 201.253 171.191 201.356 171.658 201.356Z" fill="#F1555D"/>
<g clip-path="url(#clip7_1484_15999)">
<path d="M81.0553 204.089C79.8303 198.699 75.1286 196.272 70.9986 196.272C70.9986 196.272 70.9986 196.272 70.987 196.272C66.8686 196.272 62.1553 198.687 60.9303 204.077C59.5653 210.097 63.252 215.196 66.5886 218.404C67.8253 219.594 69.412 220.189 70.9986 220.189C72.5853 220.189 74.172 219.594 75.397 218.404C78.7336 215.196 82.4203 210.109 81.0553 204.089ZM70.9986 209.934C68.9686 209.934 67.3236 208.289 67.3236 206.259C67.3236 204.229 68.9686 202.584 70.9986 202.584C73.0286 202.584 74.6736 204.229 74.6736 206.259C74.6736 208.289 73.0286 209.934 70.9986 209.934Z" fill="#0F172A"/>
</g>
<path d="M54.8551 239.231V238.336L59.1903 232.768V232.688H54.9943V231.595H60.7017V232.529L56.4858 238.058V238.137H60.8409V239.231H54.8551ZM56.7443 228.532L57.7784 229.924L58.8125 228.532H59.9261V228.612L58.3153 230.68H57.2415L55.6307 228.612V228.532H56.7443ZM62.6481 239.231V231.595H63.8214V239.231H62.6481ZM63.2447 230.322C63.016 230.322 62.8188 230.244 62.6531 230.088C62.4906 229.932 62.4094 229.745 62.4094 229.526C62.4094 229.308 62.4906 229.12 62.6531 228.965C62.8188 228.809 63.016 228.731 63.2447 228.731C63.4734 228.731 63.6689 228.809 63.8313 228.965C63.997 229.12 64.0799 229.308 64.0799 229.526C64.0799 229.745 63.997 229.932 63.8313 230.088C63.6689 230.244 63.4734 230.322 63.2447 230.322ZM67.1436 229.049V239.231H65.9703V229.049H67.1436ZM69.2926 239.231V231.595H70.4659V239.231H69.2926ZM69.8892 230.322C69.6605 230.322 69.4633 230.244 69.2976 230.088C69.1352 229.932 69.054 229.745 69.054 229.526C69.054 229.308 69.1352 229.12 69.2976 228.965C69.4633 228.809 69.6605 228.731 69.8892 228.731C70.1179 228.731 70.3134 228.809 70.4759 228.965C70.6416 229.12 70.7244 229.308 70.7244 229.526C70.7244 229.745 70.6416 229.932 70.4759 230.088C70.3134 230.244 70.1179 230.322 69.8892 230.322ZM73.7882 234.637V239.231H72.6149V231.595H73.7484V232.788H73.8478C74.0268 232.4 74.2986 232.088 74.6632 231.853C75.0278 231.614 75.4984 231.495 76.0751 231.495C76.5922 231.495 77.0446 231.601 77.4324 231.813C77.8201 232.022 78.1217 232.34 78.3372 232.768C78.5526 233.192 78.6603 233.729 78.6603 234.379V239.231H77.487V234.458C77.487 233.858 77.3313 233.391 77.0197 233.056C76.7082 232.718 76.2806 232.549 75.737 232.549C75.3625 232.549 75.0278 232.63 74.7328 232.793C74.4411 232.955 74.2108 233.192 74.0417 233.504C73.8727 233.815 73.7882 234.193 73.7882 234.637ZM83.0515 239.41C82.5676 239.41 82.1284 239.319 81.734 239.136C81.3396 238.951 81.0264 238.684 80.7944 238.336C80.5624 237.985 80.4464 237.561 80.4464 237.063C80.4464 236.626 80.5326 236.271 80.7049 235.999C80.8772 235.724 81.1076 235.509 81.396 235.353C81.6843 235.197 82.0025 235.081 82.3505 235.005C82.7018 234.926 83.0548 234.863 83.4094 234.816C83.8735 234.757 84.2496 234.712 84.538 234.682C84.8297 234.649 85.0418 234.594 85.1744 234.518C85.3103 234.442 85.3782 234.309 85.3782 234.12V234.08C85.3782 233.59 85.244 233.209 84.9755 232.937C84.7103 232.665 84.3076 232.529 83.7674 232.529C83.2073 232.529 82.7681 232.652 82.4499 232.897C82.1317 233.142 81.908 233.404 81.7788 233.683L80.6651 233.285C80.864 232.821 81.1291 232.46 81.4606 232.201C81.7953 231.939 82.1599 231.757 82.5543 231.654C82.9521 231.548 83.3432 231.495 83.7276 231.495C83.9729 231.495 84.2546 231.525 84.5728 231.585C84.8943 231.641 85.2042 231.759 85.5025 231.938C85.8041 232.117 86.0543 232.387 86.2532 232.748C86.4521 233.109 86.5515 233.593 86.5515 234.2V239.231H85.3782V238.197H85.3185C85.239 238.363 85.1064 238.54 84.9208 238.729C84.7352 238.918 84.4883 239.078 84.18 239.211C83.8718 239.344 83.4956 239.41 83.0515 239.41ZM83.2305 238.356C83.6945 238.356 84.0856 238.265 84.4038 238.083C84.7253 237.9 84.9672 237.665 85.1296 237.377C85.2953 237.088 85.3782 236.785 85.3782 236.467V235.393C85.3285 235.453 85.2191 235.507 85.0501 235.557C84.8844 235.603 84.6921 235.645 84.4734 235.681C84.2579 235.714 84.0475 235.744 83.842 235.771C83.6398 235.794 83.4757 235.814 83.3498 235.83C83.0449 235.87 82.7598 235.935 82.4947 236.024C82.2328 236.11 82.0207 236.241 81.8583 236.417C81.6992 236.589 81.6197 236.825 81.6197 237.123C81.6197 237.531 81.7705 237.839 82.0721 238.048C82.377 238.253 82.7631 238.356 83.2305 238.356Z" fill="#0F172A"/>
<g clip-path="url(#clip8_1484_15999)">
<path d="M115.555 148.089C114.33 142.699 109.629 140.272 105.499 140.272C105.499 140.272 105.499 140.272 105.487 140.272C101.369 140.272 96.6553 142.687 95.4303 148.077C94.0653 154.097 97.752 159.196 101.089 162.404C102.325 163.594 103.912 164.189 105.499 164.189C107.085 164.189 108.672 163.594 109.897 162.404C113.234 159.196 116.92 154.109 115.555 148.089ZM105.499 153.934C103.469 153.934 101.824 152.289 101.824 150.259C101.824 148.229 103.469 146.584 105.499 146.584C107.529 146.584 109.174 148.229 109.174 150.259C109.174 152.289 107.529 153.934 105.499 153.934Z" fill="#0F172A"/>
</g>
<path d="M83.6761 174.143V173.049H91.3125V174.143H88.1108V183.231H86.8778V174.143H83.6761ZM92.2633 183.231V175.595H93.3968V176.748H93.4764C93.6156 176.37 93.8675 176.064 94.2321 175.828C94.5967 175.593 95.0076 175.475 95.465 175.475C95.5512 175.475 95.6589 175.477 95.7882 175.48C95.9174 175.484 96.0152 175.489 96.0815 175.495V176.688C96.0417 176.678 95.9506 176.663 95.8081 176.644C95.6689 176.62 95.5214 176.609 95.3656 176.609C94.9944 176.609 94.6629 176.687 94.3713 176.842C94.0829 176.995 93.8542 177.207 93.6852 177.479C93.5195 177.747 93.4366 178.054 93.4366 178.399V183.231H92.2633ZM98.6456 178.637V183.231H97.4723V175.595H98.6058V176.788H98.7053C98.8842 176.4 99.156 176.088 99.5206 175.853C99.8852 175.614 100.356 175.495 100.933 175.495C101.45 175.495 101.902 175.601 102.29 175.813C102.678 176.022 102.979 176.34 103.195 176.768C103.41 177.192 103.518 177.729 103.518 178.379V183.231H102.344V178.458C102.344 177.858 102.189 177.391 101.877 177.056C101.566 176.718 101.138 176.549 100.594 176.549C100.22 176.549 99.8852 176.63 99.5902 176.793C99.2985 176.955 99.0682 177.192 98.8991 177.504C98.7301 177.815 98.6456 178.193 98.6456 178.637ZM107.909 183.41C107.425 183.41 106.986 183.319 106.591 183.136C106.197 182.951 105.884 182.684 105.652 182.336C105.42 181.985 105.304 181.561 105.304 181.063C105.304 180.626 105.39 180.271 105.562 179.999C105.735 179.724 105.965 179.509 106.253 179.353C106.542 179.197 106.86 179.081 107.208 179.005C107.559 178.926 107.912 178.863 108.267 178.816C108.731 178.757 109.107 178.712 109.395 178.682C109.687 178.649 109.899 178.594 110.032 178.518C110.168 178.442 110.236 178.309 110.236 178.12V178.08C110.236 177.59 110.101 177.209 109.833 176.937C109.568 176.665 109.165 176.529 108.625 176.529C108.065 176.529 107.626 176.652 107.307 176.897C106.989 177.142 106.765 177.404 106.636 177.683L105.523 177.285C105.721 176.821 105.987 176.46 106.318 176.201C106.653 175.939 107.017 175.757 107.412 175.654C107.809 175.548 108.201 175.495 108.585 175.495C108.83 175.495 109.112 175.525 109.43 175.585C109.752 175.641 110.062 175.759 110.36 175.938C110.662 176.117 110.912 176.387 111.111 176.748C111.309 177.109 111.409 177.593 111.409 178.2V183.231H110.236V182.197H110.176C110.096 182.363 109.964 182.54 109.778 182.729C109.593 182.918 109.346 183.078 109.037 183.211C108.729 183.344 108.353 183.41 107.909 183.41ZM108.088 182.356C108.552 182.356 108.943 182.265 109.261 182.083C109.583 181.9 109.825 181.665 109.987 181.377C110.153 181.088 110.236 180.785 110.236 180.467V179.393C110.186 179.453 110.077 179.507 109.907 179.557C109.742 179.603 109.55 179.645 109.331 179.681C109.115 179.714 108.905 179.744 108.699 179.771C108.497 179.794 108.333 179.814 108.207 179.83C107.902 179.87 107.617 179.935 107.352 180.024C107.09 180.11 106.878 180.241 106.716 180.417C106.557 180.589 106.477 180.825 106.477 181.123C106.477 181.531 106.628 181.839 106.93 182.048C107.234 182.253 107.621 182.356 108.088 182.356ZM119.521 175.595L116.697 183.231H115.504L112.68 175.595H113.953L116.061 181.68H116.141L118.249 175.595H119.521ZM123.085 183.41C122.601 183.41 122.162 183.319 121.767 183.136C121.373 182.951 121.06 182.684 120.828 182.336C120.596 181.985 120.48 181.561 120.48 181.063C120.48 180.626 120.566 180.271 120.738 179.999C120.91 179.724 121.141 179.509 121.429 179.353C121.718 179.197 122.036 179.081 122.384 179.005C122.735 178.926 123.088 178.863 123.443 178.816C123.907 178.757 124.283 178.712 124.571 178.682C124.863 178.649 125.075 178.594 125.208 178.518C125.343 178.442 125.411 178.309 125.411 178.12V178.08C125.411 177.59 125.277 177.209 125.009 176.937C124.744 176.665 124.341 176.529 123.801 176.529C123.24 176.529 122.801 176.652 122.483 176.897C122.165 177.142 121.941 177.404 121.812 177.683L120.698 177.285C120.897 176.821 121.162 176.46 121.494 176.201C121.829 175.939 122.193 175.757 122.588 175.654C122.985 175.548 123.376 175.495 123.761 175.495C124.006 175.495 124.288 175.525 124.606 175.585C124.927 175.641 125.237 175.759 125.536 175.938C125.837 176.117 126.088 176.387 126.286 176.748C126.485 177.109 126.585 177.593 126.585 178.2V183.231H125.411V182.197H125.352C125.272 182.363 125.14 182.54 124.954 182.729C124.768 182.918 124.521 183.078 124.213 183.211C123.905 183.344 123.529 183.41 123.085 183.41ZM123.264 182.356C123.728 182.356 124.119 182.265 124.437 182.083C124.758 181.9 125 181.665 125.163 181.377C125.329 181.088 125.411 180.785 125.411 180.467V179.393C125.362 179.453 125.252 179.507 125.083 179.557C124.918 179.603 124.725 179.645 124.507 179.681C124.291 179.714 124.081 179.744 123.875 179.771C123.673 179.794 123.509 179.814 123.383 179.83C123.078 179.87 122.793 179.935 122.528 180.024C122.266 180.11 122.054 180.241 121.892 180.417C121.732 180.589 121.653 180.825 121.653 181.123C121.653 181.531 121.804 181.839 122.105 182.048C122.41 182.253 122.796 182.356 123.264 182.356Z" fill="#0F172A"/>
<defs>
<clipPath id="clip0_1484_15999">
<rect width="500" height="248" fill="white"/>
</clipPath>
<clipPath id="clip1_1484_15999">
<rect width="28" height="28" fill="white" transform="translate(176.5 11.231)"/>
</clipPath>
<clipPath id="clip2_1484_15999">
<rect width="28" height="28" fill="white" transform="translate(98.5 58.231)"/>
</clipPath>
<clipPath id="clip3_1484_15999">
<rect width="28" height="28" fill="white" transform="translate(203.5 110.231)"/>
</clipPath>
<clipPath id="clip4_1484_15999">
<rect width="28" height="28" fill="white" transform="translate(348.5 80.231)"/>
</clipPath>
<clipPath id="clip5_1484_15999">
<rect width="28" height="28" fill="white" transform="translate(418.5 73.231)"/>
</clipPath>
<clipPath id="clip6_1484_15999">
<rect width="28" height="28" fill="white" transform="translate(146.5 157.231)"/>
</clipPath>
<clipPath id="clip7_1484_15999">
<rect width="28" height="28" fill="white" transform="translate(57 194.231)"/>
</clipPath>
<clipPath id="clip8_1484_15999">
<rect width="28" height="28" fill="white" transform="translate(91.5 138.231)"/>
</clipPath>
</defs>
</svg>
