<svg width="80" height="80" viewBox="0 0 80 80" fill="none" xmlns="http://www.w3.org/2000/svg">
<rect x="7.05859" y="7.05908" width="65.8824" height="65.8824" rx="32.9412" fill="#FDE9EA"/>
<path opacity="0.4" d="M31.5007 48.5289C30.4524 48.1747 29.6449 47.4381 29.3049 46.4889C28.9507 45.5256 29.0782 44.4772 29.6449 43.5281L31.5007 48.5289ZM31.5007 48.5289C34.2491 49.4639 37.1391 49.9172 40.0291 49.9172M31.5007 48.5289L40.0291 49.9172M40.0291 49.9172C42.9191 49.9172 45.8091 49.4639 48.5574 48.5431L40.0291 49.9172ZM49.7923 43.8936L49.7942 43.8966C50.2338 44.618 50.3106 45.4667 50.0196 46.2391C49.7244 47.0224 49.1178 47.6133 48.3363 47.8701L48.3324 47.8714C45.6592 48.7671 42.8454 49.2089 40.0291 49.2089C37.2127 49.2089 34.4001 48.7671 31.7289 47.8583L31.7274 47.8578C30.8533 47.5625 30.2284 46.9666 29.9717 46.25L29.9718 46.25L29.9697 46.2445C29.6977 45.5045 29.7832 44.6792 30.2521 43.8929C30.2524 43.8923 30.2527 43.8917 30.2531 43.8912L31.6818 41.5288L31.6819 41.5288L31.6876 41.5191C31.8798 41.1896 32.0412 40.7486 32.1541 40.3334C32.2669 39.9186 32.3507 39.4579 32.3507 39.0797V35.4956C32.3507 31.2676 35.7885 27.8172 40.0291 27.8172C44.2696 27.8172 47.7074 31.2676 47.7074 35.4956V39.0797C47.7074 39.4579 47.7912 39.9185 47.9038 40.3344C48.0168 40.7519 48.1774 41.193 48.3664 41.526L48.3709 41.534L48.3757 41.5419L49.7923 43.8936Z" fill="#F1555D" stroke="#F1555D" stroke-width="1.41667"/>
<mask id="path-3-inside-1_1457_14547" fill="white">
<path d="M43.1889 27.704C42.2114 27.3215 41.1489 27.109 40.0298 27.109C38.9248 27.109 37.8623 27.3073 36.8848 27.704C37.4939 26.5565 38.6981 25.834 40.0298 25.834C41.3756 25.834 42.5656 26.5565 43.1889 27.704Z"/>
</mask>
<path d="M43.1889 27.704C42.2114 27.3215 41.1489 27.109 40.0298 27.109C38.9248 27.109 37.8623 27.3073 36.8848 27.704C37.4939 26.5565 38.6981 25.834 40.0298 25.834C41.3756 25.834 42.5656 26.5565 43.1889 27.704Z" fill="#F1555D"/>
<path d="M43.1889 27.704L42.6727 29.0232L46.2857 30.437L44.4338 27.0278L43.1889 27.704ZM36.8848 27.704L35.6335 27.0397L33.806 30.4822L37.4175 29.0167L36.8848 27.704ZM43.7052 26.3847C42.5677 25.9396 41.3303 25.6923 40.0298 25.6923V28.5257C40.9675 28.5257 41.8552 28.7034 42.6727 29.0232L43.7052 26.3847ZM40.0298 25.6923C38.7546 25.6923 37.51 25.9214 36.3521 26.3913L37.4175 29.0167C38.2146 28.6932 39.0949 28.5257 40.0298 28.5257V25.6923ZM38.136 28.3682C38.4955 27.6912 39.2138 27.2507 40.0298 27.2507V24.4173C38.1824 24.4173 36.4924 25.4218 35.6335 27.0397L38.136 28.3682ZM40.0298 27.2507C40.8542 27.2507 41.5676 27.6872 41.9441 28.3802L44.4338 27.0278C43.5636 25.4258 41.897 24.4173 40.0298 24.4173V27.2507Z" fill="#F1555D" mask="url(#path-3-inside-1_1457_14547)"/>
<path d="M37.301 52.2043C37.3724 52.2113 37.4441 52.2179 37.516 52.2239C38.3399 52.2961 39.182 52.3398 40.0272 52.3398C40.8593 52.3398 41.6881 52.296 42.4986 52.2237L42.4986 52.2237L42.5027 52.2233C42.5636 52.2175 42.6311 52.2119 42.7027 52.2062C42.0494 52.9733 41.0785 53.459 39.9989 53.459C39.0654 53.459 38.1465 53.0791 37.5053 52.4146L37.493 52.4019L37.48 52.3897C37.418 52.3316 37.3582 52.2696 37.301 52.2043Z" fill="#F1555D" stroke="#F1555D" stroke-width="1.41667"/>
<circle cx="40" cy="40" r="38.5714" stroke="#F8AAAE" stroke-width="2.85714"/>
</svg>
