<svg width="32" height="32" viewBox="0 0 32 32" fill="none" xmlns="http://www.w3.org/2000/svg">
<rect width="32" height="32" rx="16" fill="#FAE8FF"/>
<path opacity="0.4" d="M18.7936 13.9064C18.5336 13.9064 18.3269 13.6998 18.3269 13.4398V12.5864C18.3269 11.9331 18.0469 11.3064 17.5669 10.8664C17.0736 10.4198 16.4402 10.2131 15.7736 10.2731C14.6536 10.3798 13.6736 11.5198 13.6736 12.7064V13.3064C13.6736 13.5664 13.4669 13.7731 13.2069 13.7731C12.9469 13.7731 12.7402 13.5664 12.7402 13.3064V12.7064C12.7402 11.0398 14.0869 9.49977 15.6802 9.34644C16.6069 9.25977 17.5002 9.5531 18.1869 10.1798C18.8669 10.7931 19.2536 11.6731 19.2536 12.5864V13.4398C19.2536 13.6998 19.0469 13.9064 18.7936 13.9064Z" fill="#D946EF"/>
<path d="M21.3068 13.9732C20.7468 13.3532 19.8268 13.0532 18.4802 13.0532H13.5202C12.1735 13.0532 11.2535 13.3532 10.6935 13.9732C10.0468 14.6932 10.0668 15.6532 10.1402 16.3199L10.6068 20.0332C10.7468 21.3332 11.2735 22.6666 14.1402 22.6666H17.8602C20.7268 22.6666 21.2535 21.3332 21.3935 20.0399L21.8602 16.3132C21.9335 15.6532 21.9468 14.6932 21.3068 13.9732ZM13.6135 16.7666H13.6068C13.2402 16.7666 12.9402 16.4666 12.9402 16.0999C12.9402 15.7332 13.2402 15.4332 13.6068 15.4332C13.9802 15.4332 14.2802 15.7332 14.2802 16.0999C14.2802 16.4666 13.9802 16.7666 13.6135 16.7666ZM18.2802 16.7666H18.2735C17.9068 16.7666 17.6068 16.4666 17.6068 16.0999C17.6068 15.7332 17.9068 15.4332 18.2735 15.4332C18.6468 15.4332 18.9468 15.7332 18.9468 16.0999C18.9468 16.4666 18.6468 16.7666 18.2802 16.7666Z" fill="#D946EF"/>
</svg>
