<svg width="16" height="16" viewBox="0 0 16 16" fill="none" xmlns="http://www.w3.org/2000/svg">
<g id="sms">
<g id="vuesax/outline/sms">
<g id="sms_2">
<g id="Vector">
<mask id="path-1-inside-1_233_1454" fill="white">
<path d="M11.3333 14.1668H4.66668C2.23334 14.1668 0.833344 12.7668 0.833344 10.3335V5.66683C0.833344 3.2335 2.23334 1.8335 4.66668 1.8335H11.3333C13.7667 1.8335 15.1667 3.2335 15.1667 5.66683V10.3335C15.1667 12.7668 13.7667 14.1668 11.3333 14.1668ZM4.66668 2.8335C2.76001 2.8335 1.83334 3.76016 1.83334 5.66683V10.3335C1.83334 12.2402 2.76001 13.1668 4.66668 13.1668H11.3333C13.24 13.1668 14.1667 12.2402 14.1667 10.3335V5.66683C14.1667 3.76016 13.24 2.8335 11.3333 2.8335H4.66668Z"/>
</mask>
<path d="M11.3333 14.1668H4.66668C2.23334 14.1668 0.833344 12.7668 0.833344 10.3335V5.66683C0.833344 3.2335 2.23334 1.8335 4.66668 1.8335H11.3333C13.7667 1.8335 15.1667 3.2335 15.1667 5.66683V10.3335C15.1667 12.7668 13.7667 14.1668 11.3333 14.1668ZM4.66668 2.8335C2.76001 2.8335 1.83334 3.76016 1.83334 5.66683V10.3335C1.83334 12.2402 2.76001 13.1668 4.66668 13.1668H11.3333C13.24 13.1668 14.1667 12.2402 14.1667 10.3335V5.66683C14.1667 3.76016 13.24 2.8335 11.3333 2.8335H4.66668Z" fill="#F1555D"/>
<path d="M11.3333 13.1668H4.66668V15.1668H11.3333V13.1668ZM4.66668 13.1668C3.63983 13.1668 2.96393 12.8749 2.54462 12.4556C2.12531 12.0362 1.83334 11.3603 1.83334 10.3335H-0.166656C-0.166656 11.74 0.24138 12.9807 1.1304 13.8698C2.01943 14.7588 3.26019 15.1668 4.66668 15.1668V13.1668ZM1.83334 10.3335V5.66683H-0.166656V10.3335H1.83334ZM1.83334 5.66683C1.83334 4.63998 2.12531 3.96408 2.54462 3.54477C2.96393 3.12546 3.63983 2.8335 4.66668 2.8335V0.833496C3.26019 0.833496 2.01943 1.24153 1.1304 2.13056C0.24138 3.01958 -0.166656 4.26034 -0.166656 5.66683H1.83334ZM4.66668 2.8335H11.3333V0.833496H4.66668V2.8335ZM11.3333 2.8335C12.3602 2.8335 13.0361 3.12546 13.4554 3.54477C13.8747 3.96408 14.1667 4.63998 14.1667 5.66683H16.1667C16.1667 4.26034 15.7586 3.01958 14.8696 2.13056C13.9806 1.24153 12.7398 0.833496 11.3333 0.833496V2.8335ZM14.1667 5.66683V10.3335H16.1667V5.66683H14.1667ZM14.1667 10.3335C14.1667 11.3603 13.8747 12.0362 13.4554 12.4556C13.0361 12.8749 12.3602 13.1668 11.3333 13.1668V15.1668C12.7398 15.1668 13.9806 14.7588 14.8696 13.8698C15.7586 12.9807 16.1667 11.74 16.1667 10.3335H14.1667ZM4.66668 1.8335C3.56637 1.8335 2.55513 2.10083 1.8279 2.82806C1.10068 3.55528 0.833343 4.56652 0.833343 5.66683H2.83334C2.83334 4.86047 3.02934 4.45504 3.24212 4.24227C3.45489 4.02949 3.86032 3.8335 4.66668 3.8335V1.8335ZM0.833343 5.66683V10.3335H2.83334V5.66683H0.833343ZM0.833343 10.3335C0.833343 11.4338 1.10068 12.445 1.8279 13.1723C2.55513 13.8995 3.56637 14.1668 4.66668 14.1668V12.1668C3.86032 12.1668 3.45489 11.9708 3.24212 11.7581C3.02934 11.5453 2.83334 11.1399 2.83334 10.3335H0.833343ZM4.66668 14.1668H11.3333V12.1668H4.66668V14.1668ZM11.3333 14.1668C12.4337 14.1668 13.4449 13.8995 14.1721 13.1723C14.8993 12.445 15.1667 11.4338 15.1667 10.3335H13.1667C13.1667 11.1399 12.9707 11.5453 12.7579 11.7581C12.5451 11.9708 12.1397 12.1668 11.3333 12.1668V14.1668ZM15.1667 10.3335V5.66683H13.1667V10.3335H15.1667ZM15.1667 5.66683C15.1667 4.56652 14.8993 3.55528 14.1721 2.82806C13.4449 2.10083 12.4337 1.8335 11.3333 1.8335V3.8335C12.1397 3.8335 12.5451 4.02949 12.7579 4.24227C12.9707 4.45504 13.1667 4.86047 13.1667 5.66683H15.1667ZM11.3333 1.8335H4.66668V3.8335H11.3333V1.8335Z" fill="#F1555D" mask="url(#path-1-inside-1_233_1454)"/>
</g>
<path id="Vector_2" d="M7.99984 8.07998C7.72382 8.07998 7.45216 8.02868 7.20753 7.92988C7.46105 8.03122 7.73342 8.07832 7.9965 8.07832C8.35742 8.07832 8.7358 7.98968 9.05904 7.79396C8.75838 7.98055 8.38431 8.07998 7.99984 8.07998Z" fill="#F1555D" stroke="#F1555D"/>
</g>
</g>
</g>
</svg>
