<svg width="18" height="19" viewBox="0 0 18 19" fill="none" xmlns="http://www.w3.org/2000/svg">
<path d="M15.75 5.42648C13.2525 5.17898 10.74 5.05148 8.235 5.05148C6.75 5.05148 5.265 5.12648 3.78 5.27648L2.25 5.42648" stroke="#F1555D" stroke-width="1.125" stroke-linecap="round" stroke-linejoin="round"/>
<path d="M6.375 4.66863L6.54 3.68613C6.66 2.97363 6.75 2.44113 8.0175 2.44113H9.9825C11.25 2.44113 11.3475 3.00363 11.46 3.69363L11.625 4.66863" stroke="#F1555D" stroke-width="1.125" stroke-linecap="round" stroke-linejoin="round"/>
<path d="M14.1373 7.79587L13.6498 15.3484C13.5673 16.5259 13.4998 17.4409 11.4073 17.4409H6.5923C4.4998 17.4409 4.4323 16.5259 4.3498 15.3484L3.8623 7.79587" stroke="#F1555D" stroke-width="1.125" stroke-linecap="round" stroke-linejoin="round"/>
<path d="M7.74756 13.3161H10.2451" stroke="#F1555D" stroke-width="1.125" stroke-linecap="round" stroke-linejoin="round"/>
<path d="M7.125 10.3161H10.875" stroke="#F1555D" stroke-width="1.125" stroke-linecap="round" stroke-linejoin="round"/>
</svg>
